<ttFont>
<head>
    <!-- Most of this table will be recalculated by the compiler -->
    <tableVersion value="1.0"/>
    <fontRevision value="1.0"/>
    <checkSumAdjustment value="0x37e808fc"/>
    <magicNumber value="0x5f0f3cf5"/>
    <flags value="00000000 00000011"/>
    <unitsPerEm value="1000"/>
    <created value="Sat Apr 18 10:46:40 2015"/>
    <modified value="Thu Jan  1 00:00:00 1970"/>
    <xMin value="-199"/>
    <yMin value="-269"/>
    <xMax value="1046"/>
    <yMax value="954"/>
    <macStyle value="00000000 00000000"/>
    <lowestRecPPEM value="6"/>
    <fontDirectionHint value="2"/>
    <indexToLocFormat value="0"/>
    <glyphDataFormat value="0"/>
  </head>
          <CharString index="0">
            -89 callsubr
            -202 hmoveto
            -48 callsubr
            return
          </CharString>
          <CharString index="1">
            rmoveto
            23 -12 143 131 121 -124 39 26 -157 160 rlineto
            return
          </CharString>
          <CharString index="2">
            rmoveto
            162 -154 18 31 -120 157 -13 2 rlineto
            return
          </CharString>
          <CharString index="3">
            rmoveto
            -47 36 -13 -2 -120 -157 18 -31 rlineto
            return
          </CharString>
          <CharString index="4">
            rmoveto
            -26 12 -31 13 -26 -4 -35 -5 -19 -58 -8 -35 14 -5 rcurveline
            12 33 10 12 24 3 17 2 18 -4 15 -7 63 -30 rcurveline
            20 -9 22 -6 22 3 32 4 20 56 3 29 -13 5 rcurveline
            -9 -23 -8 -13 -24 -3 -16 -2 -16 5 -14 6 rrcurveto
            return
          </CharString>
          <CharString index="5">
            rmoveto
            -170 -68 -140 -141 -90 36 -107 111 58 56 31 32 49 hvcurveto
            15 -4 rlineto
            -34 6 14 -25 37 hhcurveto
            32 54 34 24 40 hvcurveto
            -7 24 rlineto
            -8 -21 -30 -10 -14 hhcurveto
            -54 15 125 62 73 2 72 4 73 hvcurveto
            -5 5 -53 -31 rlineto
            23 -32 -43 12 -32 hhcurveto
            -21 -412 rmoveto
            -47 callsubr
            16 -17 0 -26 -26 vvcurveto
            -230 vlineto
            -23 -30 -37 -22 -39 hhcurveto
            endchar
          </CharString>
          <CharString index="6">
            -49 callsubr
            160 -15 83 rrcurveto
            -194 -65 callsubr
            -206 586 -58 callsubr
          </CharString>
          <CharString index="7">
            -41 callsubr
            54 -54 -79 22 -75 -39 callsubr
            vhcurveto
            51 678 rmoveto
            169 61 -182 -142 -150 -62 -163 -166 -39 -61 10 67 -60 hvcurveto
            -23 callsubr
            endchar
          </CharString>
          <CharString index="8">
            rmoveto
            44 49 14 66 65 vvcurveto
            112 -51 114 -147 -79 callsubr
            vhcurveto
            -34 callsubr
            -163 367 rmoveto
            -42 callsubr
            74 18 54 36 54 hhcurveto
            endchar
          </CharString>
          <CharString index="9">
            rmoveto
            44 -17 35 -45 -39 -56 -39 -36 -45 vhcurveto
            13 -18 rlineto
            15 24 34 17 22 hhcurveto
            26 9 -33 -52 hvcurveto
            -6 -221 rlineto
            -99 37 -13 43 55 52 52 45 34 vhcurveto
            11 vlineto
            -13 10 rlineto
            -24 -27 -27 -21 -38 hhcurveto
            -35 -9 43 74 hvcurveto
            endchar
          </CharString>
          <CharString index="10">
            hlineto
            -7 -40 rlineto
            return
          </CharString>
          <CharString index="11">
            -62 callsubr
            -148 -1 -7 -7 1 -20 47 -7 23 -12 6 -13 rlinecurve
            9 -20 0 -30 -14 vvcurveto
            -492 vlineto
            -27 6 -28 20 -11 vhcurveto
            388 -82 callsubr
            endchar
          </CharString>
          <CharString index="12">
            rmoveto
            -7 6 rlineto
            -169 hlineto
            -8 -7 2 -20 rlineto
            14 74 -12 -40 hvcurveto
            -59 vlineto
            -78 -2 -79 -77 vvcurveto
            -61 1 -74 7 -46 vhcurveto
            -59 12 33 -77 139 hhcurveto
            83 80 34 45 70 hvcurveto
            8 -6 rlineto
            -30 -6 -39 39 31 71 21 16 51 vhcurveto
            5 7 -4 17 rlineto
            -2 -20 -18 -6 -20 hhcurveto
            -48 0 72 82 162 1 209 15 114 hvcurveto
            -6 7 -88 -35 rlineto
            -2 -182 -2 -183 -183 vvcurveto
            -32 -54 -60 -27 -62 hhcurveto
            -97 -79 49 168 hvcurveto
            8 273 rlineto
            17 5 101 3 14 vhcurveto
            endchar
          </CharString>
          <CharString index="13">
            rmoveto
            -19 -26 -34 -23 -27 hhcurveto
            -49 0 55 61 92 4 93 8 93 hvcurveto
            -13 11 -77 -35 rlineto
            1 -21 0 -39 -46 -71 -1 -89 -65 vvcurveto
            -24 -39 -47 -29 -45 hhcurveto
            -92 2 91 102 169 9 55 -75 -42 -55 -43 -30 -39 hvcurveto
            13 -20 rlineto
            13 23 34 17 14 hhcurveto
            12 10 -2 -7 6 hvcurveto
            13 -14 4 -16 -91 -29 -4 -101 -33 vvcurveto
            -56 19 -66 86 59 73 41 34 56 vhcurveto
            8 -1 rlineto
            -42 4 19 -30 46 hhcurveto
            51 63 53 41 47 hvcurveto
            -11 19 rlineto
            endchar
          </CharString>
          <CharString index="14">
            rmoveto
            77 -56 61 -86 -76 -72 -33 -57 -49 vhcurveto
            -39 -45 -12 -59 -58 vvcurveto
            -113 32 -125 134 86 80 58 58 62 vhcurveto
            -31 callsubr
            282 122 rlineto
            11 5 10 4 12 vvcurveto
            -177 98 rmoveto
            -45 callsubr
            26 21 30 16 33 hhcurveto
            endchar
          </CharString>
          <CharString index="15">
            vlineto
            40 8 rlineto
            return
          </CharString>
          <CharString index="16">
            rmoveto
            -1 -43 11 6 -21 hvcurveto
            -42 11 11 75 -1 43 rrcurveto
            -1 61 -1 62 67 vvcurveto
            78 -6 119 9 59 vhcurveto
            1 12 8 11 13 3 67 15 rcurveline
            21 vlineto
            -6 -80 callsubr
            -22 vlineto
            80 -18 7 5 2 -30 rrcurveto
            3 -38 0 -38 -39 vvcurveto
            -363 vlineto
            -4 -83 13 -7 -98 -19 rrcurveto
            -26 265 vlineto
            endchar
          </CharString>
          <CharString index="17">
            704 rmoveto
            -11 -1 -433 -680 rlineto
            -14 vlineto
            31 -13 437 688 -3 11 rlineto
            return
          </CharString>
          <CharString index="18">
            rmoveto
            -48 callsubr
            return
          </CharString>
          <CharString index="19">
            rmoveto
            -30 callsubr
            return
          </CharString>
          <CharString index="20">
            885 -104 callsubr
            return
          </CharString>
          <CharString index="21">
            hlineto
            -4 6 rlineto
            return
          </CharString>
          <CharString index="22">
            rmoveto
            -28 27 53 -23 47 hhcurveto
            107 103 54 130 36 hvcurveto
            22 95 -15 212 14 204 -12 4 rcurveline
            -79 -38 rlineto
            5 -69 3 -72 -72 vvcurveto
            -36 -1 -36 -1 -35 vhcurveto
            -22 -37 -49 -30 -48 hhcurveto
            -24 -24 7 19 -15 hvcurveto
            -16 21 -9 30 -3 93 rrcurveto
            58 4 58 56 vvcurveto
            37 -20 33 -43 -46 -79 -57 -10 -14 vhcurveto
            11 -19 rlineto
            12 23 31 16 17 hhcurveto
            41 5 -44 -72 hvcurveto
            -50 -4 -42 -45 vvcurveto
            -67 7 -98 97 64 68 42 35 56 vhcurveto
            6 -5 -1 -32 -1 -33 -6 -33 rlinecurve
            -57 -10 -24 -101 -107 hhcurveto
            -45 -38 39 38 -21 hvcurveto
            -13 hlineto
            -44 -56 rlineto
            endchar
          </CharString>
          <CharString index="23">
            -85 -17 -36 -57 -84 -145 -8 -14 rlinecurve
            -54 -30 -35 -53 -5 hhcurveto
            -6 -5 6 2 -1 hvcurveto
            -141 325 rlineto
            -145 hlineto
            -7 -7 rlineto
            -28 vlineto
            40 -6 23 -6 23 -45 return
          </CharString>
          <CharString index="24">
            575 -52 callsubr
            endchar
          </CharString>
          <CharString index="25">
            hlineto
            13 53 -5 5 rlineto
            -14 -164 -23 0 -47 hhcurveto
            -61 -21 6 26 -14 hvcurveto
            -14 25 -1 49 38 vvcurveto
            139 vlineto
            18 71 -3 58 39 40 -3 -3 39 vhcurveto
            return
          </CharString>
          <CharString index="26">
            hlineto
            6 -8 rlineto
            -108 vlineto
            -91 -6 -94 -7 -99 vhcurveto
            17 -11 79 24 rlineto
            -7 81 -3 95 94 vvcurveto
            111 vlineto
            6 6 rlineto
            return
          </CharString>
          <CharString index="27">
            6 rlineto
            -250 hlineto
            -7 -6 rlineto
            return
          </CharString>
          <CharString index="28">
            -70 -71 -22 -52 -47 return
          </CharString>
          <CharString index="29">
            hvcurveto
            -8 6 rlineto
            37 return
          </CharString>
          <CharString index="30">
            rmoveto
            21 -304 3 -99 -102 vvcurveto
            -2 -1 -6 -5 -4 -4 5 3 -3 vhcurveto
            -117 126 -162 215 -133 176 rrcurveto
            -162 hlineto
            -8 -7 4 -27 rlineto
            95 -23 -10 -4 -21 -43 1 -43 -43 vvcurveto
            -158 -5 -159 -8 -158 vhcurveto
            9 -9 70 30 rlineto
            -11 174 -13 219 129 vvcurveto
            5 0 12 7 4 4 -5 -4 3 vhcurveto
            49 -56 83 -95 102 -126 159 -198 rcurveline
            30 -38 14 -16 23 -26 rrcurveto
            36 hlineto
            227 2 232 13 227 vhcurveto
            -6 8 rlineto
            endchar
          </CharString>
          <CharString index="31">
            rmoveto
            7 vlineto
            40 22 44 38 43 vvcurveto
            50 -49 33 -68 vhcurveto
            -6 hlineto
            -54 -19 -58 -27 -60 vvcurveto
            -43 38 -34 38 -23 vhcurveto
            -7 vlineto
            -72 -37 -37 -24 -56 vvcurveto
            -27 6 -27 22 -19 vhcurveto
            -21 23 38 -6 32 hhcurveto
            81 83 47 77 49 -30 20 -71 44 hvcurveto
            -22 16 rmoveto
            -36 22 -41 33 35 vvcurveto
            23 8 17 31 18 vhcurveto
            58 29 -39 -30 -32 -20 -30 -29 -17 hvcurveto
            -28 -47 rmoveto
            55 -31 37 -24 -44 vvcurveto
            -49 -33 -33 -54 -53 -30 44 43 47 32 25 46 22 vhcurveto
            endchar
          </CharString>
          <CharString index="32">
            263 697 -73 callsubr
          </CharString>
          <CharString index="33">
            rmoveto
            -206 -260 rlineto
            -27 204 vlineto
            5 -5 rlineto
            -38 1 -50 -4 -21 vhcurveto
            3 -3 58 20 rlineto
            -2 13 -1 48 32 vvcurveto
            6 4 rlineto
            59 hlineto
            12 23 -3 4 rlineto
            -68 hlineto
            -6 5 rlineto
            93 1 164 1 16 vhcurveto
            -6 3 rlineto
            -55 -281 rmoveto
            -155 hlineto
            -3 4 1 13 60 83 27 35 rlinecurve
            21 27 21 28 25 23 rrcurveto
            1 1 1 1 2 hhcurveto
            2 1 -1 -4 hvcurveto
            -205 vlineto
            endchar
          </CharString>
          <CharString index="34">
            rmoveto
            -51 -21 -194 -260 rlineto
            -26 192 vlineto
            5 -6 rlineto
            -38 1 -49 -4 -21 vhcurveto
            3 -4 54 20 rlineto
            -2 13 1 48 32 vvcurveto
            4 5 rlineto
            56 hlineto
            11 22 -3 4 rlineto
            -64 hlineto
            -4 5 rlineto
            93 -1 164 1 16 vhcurveto
            -53 -273 rmoveto
            -4 -5 rlineto
            -146 hlineto
            -3 4 rlineto
            13 57 84 26 35 vhcurveto
            20 27 20 28 23 23 rrcurveto
            1 1 2 0 1 hhcurveto
            2 1 -1 -4 hvcurveto
            endchar
          </CharString>
          <CharString index="35">
            rmoveto
            10 50 46 58 36 47 rrcurveto
            36 46 40 59 50 vvcurveto
            65 -49 39 -98 vhcurveto
            -34 -13 -60 -27 -19 -22 rrcurveto
            -19 -22 -7 -27 -31 vvcurveto
            -58 58 -42 46 35 34 10 16 32 vhcurveto
            5 -3 rlineto
            -22 -33 -58 -69 0 vvcurveto
            -30 -35 -33 -38 -14 -28 7 -4 rcurveline
            151 235 rmoveto
            -14 -16 -25 -5 -22 hhcurveto
            -57 -31 51 47 31 23 46 38 73 38 -46 -51 -21 -4 -23 -17 -15 hvcurveto
            endchar
          </CharString>
          <CharString index="36">
            rmoveto
            4 -10 -17 3 -10 hhcurveto
            -61 -57 -35 -39 -43 hvcurveto
            -60 -55 -31 -72 -76 vvcurveto
            -69 34 -82 96 81 78 64 71 51 -41 48 -61 -47 -42 -17 -26 -36 vhcurveto
            -5 1 1 58 13 60 53 44 rlinecurve
            23 28 37 16 41 hhcurveto
            14 12 -2 -5 13 hvcurveto
            7 2 rlineto
            -217 -221 rmoveto
            13 15 41 16 28 hhcurveto
            54 38 -41 -44 -47 -31 -37 -56 -70 -19 82 58 hvcurveto
            endchar
          </CharString>
          <CharString index="37">
            rmoveto
            59 15 48 39 58 vvcurveto
            53 -46 27 -53 -42 -46 -30 -26 -35 vhcurveto
            10 -13 rlineto
            15 26 31 16 26 hhcurveto
            41 32 -22 -37 -55 -48 -29 -81 -17 hvcurveto
            -1 -16 rlineto
            41 54 -2 -25 26 hvcurveto
            20 -19 13 -23 -26 vvcurveto
            -53 -39 -45 -60 -41 -29 27 32 -22 vhcurveto
            -7 hlineto
            -28 -44 4 -6 rlineto
            -21 31 37 -12 39 hhcurveto
            89 90 56 83 62 -56 26 -83 7 hvcurveto
            endchar
          </CharString>
          <CharString index="38">
            rmoveto
            4 5 2 4 32 86 2 1 59 vhcurveto
            18 47 rlineto
            -227 hlineto
            -5 -4 rlineto
            -196 vlineto
            8 -7 rlineto
            19 22 28 13 30 hhcurveto
            69 25 -53 -50 -62 -36 -56 -76 -41 -26 34 29 -14 hvcurveto
            -8 hlineto
            -29 -33 1 -8 rlineto
            -29 28 40 -16 43 hhcurveto
            97 86 65 93 67 -50 48 -79 -31 -31 -10 -12 -28 hvcurveto
            endchar
          </CharString>
          <CharString index="39">
            45 437 rmoveto
            -150 121 -121 150 150 121 121 150 150 -121 121 -150 -150 -121 -121 -150 vhcurveto
            25 hmoveto
            136 110 110 136 136 110 -13 callsubr
            -13 callsubr
            110 136 vhcurveto
            return
          </CharString>
          <CharString index="40">
            rmoveto
            -29 -10 -34 -15 -22 -20 rrcurveto
            -58 -51 -31 -72 -72 vvcurveto
            -71 21 -119 97 122 50 123 99 79 -33 84 -83 45 vhcurveto
            -38 -38 rmoveto
            31 -11 30 -42 4 -8 rrcurveto
            30 -47 17 -51 -54 vvcurveto
            -59 -18 -81 -81 -45 -30 48 40 -14 vhcurveto
            -11 33 -3 36 35 vvcurveto
            60 31 67 59 34 vhcurveto
            endchar
          </CharString>
          <CharString index="41">
            rmoveto
            -3 5 rlineto
            -209 hlineto
            -4 -5 0 4 1 0 0 1 1 hvcurveto
            82 83 107 106 84 vvcurveto
            53 -44 40 -58 -56 -50 -32 -36 -37 vhcurveto
            13 -11 rlineto
            19 26 31 19 37 hhcurveto
            56 20 -46 -33 -72 -53 -60 -53 -55 hvcurveto
            -36 -37 -38 -35 -38 -35 rrcurveto
            -10 296 vlineto
            endchar
          </CharString>
          <CharString index="42">
            -27 hlineto
            90 -28 callsubr
            -115 -204 -36 callsubr
            225 hlineto
            3 6 -5 -4 2 hvcurveto
            54 -188 rlineto
            -44 12 13 -42 33 hhcurveto
            return
          </CharString>
          <CharString index="43">
            rmoveto
            13 25 35 20 16 hhcurveto
            36 8 -12 -242 -44 -3 -124 -17 -62 hvcurveto
            -14 -50 -40 -45 -74 -44 16 -16 rcurveline
            90 43 76 60 30 87 rrcurveto
            12 35 0 140 20 vvcurveto
            37 0 167 -7 43 vhcurveto
            33 -3 -10 34 -48 hhcurveto
            -43 -57 -43 -32 -41 hvcurveto
            endchar
          </CharString>
          <CharString index="44">
            hhcurveto
            86 80 58 58 62 hvcurveto
            -31 callsubr
            42 199 rmoveto
            26 21 30 16 33 hhcurveto
            -45 callsubr
            return
          </CharString>
          <CharString index="45">
            rmoveto
            -61 callsubr
            return
          </CharString>
          <CharString index="46">
            -6 7 rlineto
            -4 -53 -74 -3 -53 hhcurveto
            -37 -29 -3 17 hvcurveto
            166 vlineto
            35 4 37 20 4 vhcurveto
            40 hlineto
            7 133 -6 -4 69 hvcurveto
            4 7 2 50 rlineto
            1 -13 -15 0 -18 hhcurveto
            -1 -71 -101 -5 -70 hhcurveto
            return
          </CharString>
          <CharString index="47">
            rmoveto
            8 -140 vlineto
            -31 -103 0 4 -13 hvcurveto
            -14 -47 4 -5 rlineto
            228 hlineto
            5 -8 rlineto
            -42 -59 -66 -103 0 vvcurveto
            -37 -55 -58 -90 -16 -49 4 -5 rcurveline
            56 12 22 88 44 81 53 77 rlinecurve
            endchar
          </CharString>
          <CharString index="48">
            -38 -44 -50 -31 -59 hhcurveto
            -117 -24 115 86 88 45 100 85 43 33 -39 -67 9 hvcurveto
            17 -6 -14 callsubr
            -148 -105 -108 -150 -99 10 -137 163 return
          </CharString>
          <CharString index="49">
            rmoveto
            3 3 -2 -2 1 hvcurveto
            70 -244 rlineto
            -1 2 -8 0 vhcurveto
            -3 -2 -4 -5 vhcurveto
            -188 -27 callsubr
            1 3 3 3 vhcurveto
            endchar
          </CharString>
          <CharString index="50">
            -55 callsubr
            20 47 rcurveline
            -36 hlineto
            endchar
          </CharString>
          <CharString index="51">
            2 rmoveto
            104 131 16 73 67 hvcurveto
            77 83 22 84 127 vvcurveto
            177 -57 124 -310 vhcurveto
            -313 hlineto
            -7 -8 rlineto
            -19 vlineto
            26 -8 47 -6 2 -25 rrcurveto
            1 -15 1 -16 -16 vvcurveto
            return
          </CharString>
          <CharString index="52">
            -112 -53 callsubr
            return
          </CharString>
          <CharString index="53">
            rmoveto
            -146 -44 rlineto
            -16 56 vlineto
            42 -10 -49 -67 -84 -2 -84 -3 -83 hvcurveto
            8 -3 57 16 rlineto
            -2 46 0 118 82 vvcurveto
            53 1 55 4 53 vhcurveto
            endchar
          </CharString>
          <CharString index="54">
            rmoveto
            37 -11 50 -31 -28 -38 -14 -18 -32 -14 -26 -10 -5 -10 rcurveline
            6 -15 55 10 70 18 33 44 rlinecurve
            26 36 -9 36 -23 28 -19 23 -40 18 -13 5 return
          </CharString>
          <CharString index="55">
            -32 callsubr
            30 hmoveto
            -29 callsubr
            return
          </CharString>
          <CharString index="56">
            -36 rmoveto
            -16 60 vlineto
            44 -10 -49 -67 -84 -1 -85 -4 -83 hvcurveto
            8 -3 61 17 rlineto
            -2 46 -1 118 82 vvcurveto
            53 2 54 4 53 vhcurveto
            -5 8 rlineto
            return
          </CharString>
          <CharString index="57">
            hhcurveto
            -44 -52 -36 -32 -40 hvcurveto
            14 -19 rlineto
            14 24 28 15 21 hhcurveto
            30 9 -52 -45 hvcurveto
            -221 vlineto
            -57 -1 -205 -5 -58 vhcurveto
            10 -11 rlineto
            73 return
          </CharString>
          <CharString index="58">
            rmoveto
            15 15 2 4 15 hvcurveto
            104 30 -1 26 rlineto
            -1 -14 -15 -2 -14 hhcurveto
            -27 -24 8 22 -13 hvcurveto
            -36 60 -27 97 -22 81 -33 120 -45 return
          </CharString>
          <CharString index="59">
            30 -20 28 -34 -29 -35 -22 -34 -32 26 -26 32 32 26 23 33 2 vhcurveto
            return
          </CharString>
          <CharString index="60">
            -37 -41 8 33 -21 hvcurveto
            -23 35 -6 43 1 42 2 101 29 55 23 22 rrcurveto
            25 26 33 13 36 hhcurveto
            25 25 -14 -19 18 hvcurveto
            return
          </CharString>
          <CharString index="61">
            hlineto
            -7 -7 rlineto
            -18 vlineto
            38 -5 33 -9 3 -40 rrcurveto
            3 -59 2 -59 -59 vvcurveto
            -141 -5 -141 -2 -140 vhcurveto
            7 -7 return
          </CharString>
          <CharString index="62">
            56 35 -52 -42 -16 -7 -8 -6 -2 hvcurveto
            -202 -80 -4 4 rlineto
            -1 6 -1 6 6 vvcurveto
            49 7 45 39 42 vhcurveto
            return
          </CharString>
          <CharString index="63">
            vvcurveto
            19 65 -2 29 2 vhcurveto
            65 5 73 15 44 45 rrcurveto
            42 42 22 55 59 vvcurveto
            106 -67 59 -164 vhcurveto
            return
          </CharString>
          <CharString index="64">
            6 vvcurveto
            37 47 41 21 51 hhcurveto
            64 39 -77 -87 -95 -34 -115 -121 -33 -31 15 22 -24 hvcurveto
            endchar
          </CharString>
          <CharString index="65">
            113 19 -124 -82 -83 -23 -110 -108 -109 -26 128 84 26 2 26 6 25 hvcurveto
            return
          </CharString>
          <CharString index="66">
            rmoveto
            157 129 72 98 48 hvcurveto
            40 81 1 65 66 vvcurveto
            93 -22 104 -62 63 vhcurveto
            return
          </CharString>
          <CharString index="67">
            rmoveto
            -85 -43 -83 -71 -92 vvcurveto
            -71 44 -77 88 91 94 101 90 76 -73 67 -76 20 vhcurveto
            return
          </CharString>
          <CharString index="68">
            -22 callsubr
            -165 74 -171 205 return
          </CharString>
          <CharString index="69">
            -66 -139 -4 -7 3 9 87 2 113 4 88 hvcurveto
            5 2 6 7 vhcurveto
            endchar
          </CharString>
          <CharString index="70">
            rmoveto
            210 202 -192 188 -31 -46 149 -146 -150 -170 rlineto
            return
          </CharString>
          <CharString index="71">
            -119 -200 3 -10 rcurveline
            91 19 117 248 rlineto
            4 2 4 4 4 hhcurveto
            return
          </CharString>
          <CharString index="72">
            rmoveto
            -37 30 -30 37 37 30 30 37 37 -30 30 -37 -37 -30 -30 -37 vhcurveto
            endchar
          </CharString>
          <CharString index="73">
            -48 -52 -7 -74 -69 vvcurveto
            -106 7 49 -104 138 hhcurveto
            70 72 20 53 47 hvcurveto
            return
          </CharString>
          <CharString index="74">
            rmoveto
            -18 callsubr
            -192 -188 rlineto
            return
          </CharString>
          <CharString index="75">
            rmoveto
            -54 43 -43 54 54 43 43 54 54 -43 43 -54 -54 -43 -43 -54 vhcurveto
            return
          </CharString>
          <CharString index="76">
            -13 18 -11 2 rlineto
            -35 -45 -54 -33 -55 hhcurveto
            -89 -34 78 63 -6 hvcurveto
            return
          </CharString>
          <CharString index="77">
            -31 26 -26 32 31 25 26 31 31 -25 26 -31 -32 -26 -26 -31 vhcurveto
            return
          </CharString>
          <CharString index="78">
            37 30 30 37 37 30 -30 -37 -37 -30 -30 -37 -37 -30 30 37 vhcurveto
            return
          </CharString>
          <CharString index="79">
            -15 rlineto
            9 -2 3 -6 -3 vvcurveto
            -3 0 -1 -1 -3 vhcurveto
            -105 -208 return
          </CharString>
          <CharString index="80">
            hlineto
            -3 -4 4 3 1 0 6 1 2 hvcurveto
            116 244 rlineto
            return
          </CharString>
          <CharString index="81">
            586 rmoveto
            -40 -6 rlineto
            -304 -303 vlineto
            -7 -40 rlineto
            310 return
          </CharString>
          <CharString index="82">
            -63 -60 -37 -70 -30 hvcurveto
            -16 -36 -2 -51 -35 vvcurveto
            -6 -6 rlineto
            return
          </CharString>
          <CharString index="83">
            hlineto
            52 186 -7 10 -22 2 -11 -3 -54 -195 rlineto
            return
          </CharString>
          <CharString index="84">
            -62 68 -17 86 94 vvcurveto
            152 64 160 173 vhcurveto
            return
          </CharString>
          <CharString index="85">
            hhcurveto
            -93 -105 -20 -68 -63 hvcurveto
            -74 -80 -27 -85 -129 vvcurveto
            return
          </CharString>
          <CharString index="86">
            595 -17 callsubr
          </CharString>
          <CharString index="87">
            319 rmoveto
            11 5 10 4 12 vvcurveto
            77 -56 61 -86 return
          </CharString>
          <CharString index="88">
            hlineto
            -54 -195 4 -14 33 -3 59 212 rlineto
            return
          </CharString>
          <CharString index="89">
            14 28 -150 170 149 146 -31 46 return
          </CharString>
          <CharString index="90">
            rmoveto
            -235 -97 callsubr
            236 hlineto
            endchar
          </CharString>
          <CharString index="91">
            rmoveto
            -657 -97 callsubr
            658 hlineto
            return
          </CharString>
          <CharString index="92">
            rmoveto
            -661 -97 callsubr
            662 hlineto
            return
          </CharString>
          <CharString index="93">
            54 53 rlineto
            57 -6 -45 41 -65 hhcurveto
            return
          </CharString>
          <CharString index="94">
            -110 -136 -136 -110 return
          </CharString>
        <CharString name=".notdef">
          -45 50 -200 rmoveto
          400 1000 -400 -1000 hlineto
          50 50 rmoveto
          900 300 -900 -300 vlineto
          endchar
        </CharString>
        <CharString name="A">
          177 572 -10 -101 callsubr
        </CharString>
        <CharString name="AE">
          252 366 66 rmoveto
          -27 6 -28 20 -11 vhcurveto
          388 -82 callsubr
          6 48 -61 callsubr
          -194 -27 hlineto
          91 -28 callsubr
          -116 -206 -36 callsubr
          142 hlineto
          39 vmoveto
          -116 -27 callsubr
          2 5 4 0 -9 vvcurveto
          endchar
        </CharString>
        <CharString name="Aacute">
          177 517 882 -104 callsubr
          217 -738 -101 callsubr
        </CharString>
        <CharString name="Acircumflex">
          177 189 729 -106 callsubr
          214 -920 -101 callsubr
        </CharString>
        <CharString name="Adieresis">
          177 512 813 -107 callsubr
          262 -823 -101 callsubr
        </CharString>
        <CharString name="Agrave">
          177 222 883 -105 callsubr
          303 -929 -101 callsubr
        </CharString>
        <CharString name="Aring">
          177 572 -10 -49 callsubr
          159 -15 83 rrcurveto
          21 18 13 26 30 vvcurveto
          54 -43 43 -54 -54 -43 -43 -54 -29 13 -26 20 -18 vhcurveto
          -67 -65 callsubr
          -267 763 rmoveto
          -29 callsubr
          61 -177 -58 callsubr
        </CharString>
        <CharString name="Atilde">
          177 350 838 -103 callsubr
          175 -827 -101 callsubr
        </CharString>
        <CharString name="B">
          14 335 378 rmoveto
          81 34 72 44 97 vvcurveto
          109 -116 24 -113 vhcurveto
          -247 hlineto
          -7 -7 -1 -17 rlineto
          37 -10 46 -7 -34 vvcurveto
          -530 vlineto
          -56 -3 16 -20 -30 vhcurveto
          1 -10 rlineto
          1 131 -2 66 hhcurveto
          121 144 48 154 98 -48 52 -146 19 hvcurveto
          -165 259 rmoveto
          21 6 44 -2 23 hhcurveto
          85 76 -19 -84 -118 -94 -46 -106 -20 -12 0 10 -2 hvcurveto
          -53 vmoveto
          10 5 21 -2 36 hhcurveto
          100 106 -19 -119 -117 -91 -52 -102 -67 -8 4 23 hvcurveto
          endchar
        </CharString>
        <CharString name="C">
          88 624 586 rmoveto
          85 -52 -76 28 -88 hhcurveto
          -104 -101 -36 -73 -73 hvcurveto
          -70 -70 -21 -98 -96 vvcurveto
          -98 26 -99 70 -70 vhcurveto
          -57 57 82 -17 79 hhcurveto
          87 80 42 49 72 hvcurveto
          -17 29 rlineto
          -38 -56 -63 -29 -68 hhcurveto
          -82 -42 28 55 -55 hvcurveto
          -33 33 -48 98 92 vvcurveto
          152 64 162 182 82 63 -39 -90 34 vhcurveto
          14 -1 rlineto
          endchar
        </CharString>
        <CharString name="Ccedilla">
          88 285 -55 callsubr
          11 26 rcurveline
          83 4 76 40 69 47 -17 29 rcurveline
          -38 -56 -63 -29 -68 hhcurveto
          -82 -42 28 55 -55 hvcurveto
          -33 33 -48 98 92 vvcurveto
          152 64 162 182 82 63 -39 -90 34 vhcurveto
          14 -1 57 58 rlineto
          85 -52 -76 28 -88 hhcurveto
          -104 -101 -36 -73 -73 hvcurveto
          -70 -70 -21 -98 -96 vvcurveto
          -98 26 -99 70 -70 vhcurveto
          51 -51 71 -19 71 -3 rrcurveto
          endchar
        </CharString>
        <CharString name="D">
          192 295 -56 callsubr
          -494 vlineto
          -1 -38 -1 -14 -20 -15 rrcurveto
          -10 vlineto
          106 573 rmoveto
          71 4 -10 10 5 vhcurveto
          3 6 17 1 43 hhcurveto
          131 100 -7 -47 48 hvcurveto
          56 -56 17 -97 -61 vvcurveto
          -168 -65 -169 -270 -27 -39 0 13 -13 vhcurveto
          -15 15 -2 62 -1 40 rrcurveto
          endchar
        </CharString>
        <CharString name="Delta">
          206 46 45 rmoveto
          2 -42 rlineto
          5 73 74 2 74 hhcurveto
          125 124 -6 -8 125 hvcurveto
          61 32 1 16 -108 209 -86 219 -74 224 rlinecurve
          -58 -25 rlineto
          199 -621 rmoveto
          -117 -118 3 -118 hhcurveto
          -35 -35 0 -1 -35 hvcurveto
          -3 12 80 169 80 157 95 164 rlinecurve
          11 hlineto
          -1 160 -400 41 -94 vhcurveto
          endchar
        </CharString>
        <CharString name="E">
          -27 417 384 -96 callsubr
        </CharString>
        <CharString name="Eacute">
          -27 385 -87 callsubr
          194 -347 -96 callsubr
        </CharString>
        <CharString name="Ecircumflex">
          -27 107 732 -106 callsubr
          141 -529 -96 callsubr
        </CharString>
        <CharString name="Edieresis">
          -27 430 816 -107 callsubr
          189 -432 -96 callsubr
        </CharString>
        <CharString name="Egrave">
          -27 140 886 -105 callsubr
          230 -538 -96 callsubr
        </CharString>
        <CharString name="Eth">
          201 304 -56 callsubr
          -193 -69 vlineto
          -7 -40 rlineto
          76 -261 hlineto
          -1 -38 -1 -14 -20 -15 rrcurveto
          -10 vlineto
          247 378 rmoveto
          -141 195 hlineto
          71 4 -10 10 5 vhcurveto
          3 6 17 1 43 hhcurveto
          131 100 -7 -47 48 hvcurveto
          56 -56 17 -97 -61 vvcurveto
          -168 -65 -169 -270 -27 -39 0 13 -13 vhcurveto
          -15 15 -2 62 -1 40 rrcurveto
          170 135 vlineto
          endchar
        </CharString>
        <CharString name="F">
          -104 87 360 rmoveto
          -121 -3 -120 -4 -121 vhcurveto
          92 15 rlineto
          -4 101 -1 115 101 vvcurveto
          7 7 4 5 71 88 -1 -4 70 vhcurveto
          5 5 1 49 rlineto
          -3 -72 -90 -9 -73 hhcurveto
          -9 -4 8 5 211 3 10 4 14 hvcurveto
          17 5 14 6 13 hhcurveto
          72 72 -15 -5 72 hvcurveto
          8 8 rlineto
          53 vlineto
          -2 -73 -206 0 -142 hhcurveto
          -7 -7 rlineto
          -21 vlineto
          55 -13 rlineto
          40 -10 -7 -73 -43 vvcurveto
          endchar
        </CharString>
        <CharString name="G">
          116 325 270 rmoveto
          6 -5 54 -2 64 -3 44 -4 rlinecurve
          38 -4 -10 -98 -20 vvcurveto
          -30 6 -54 -26 -5 vhcurveto
          -7 -31 -31 -3 -32 hhcurveto
          -196 -82 159 146 152 55 158 187 81 59 -32 -88 44 hvcurveto
          12 -1 58 57 rlineto
          81 -53 -69 32 -87 hhcurveto
          -105 -105 -31 -75 -75 hvcurveto
          -70 -70 -22 -101 -98 vvcurveto
          -95 25 -98 68 -68 vhcurveto
          -54 54 75 -26 76 hhcurveto
          73 108 27 23 88 hvcurveto
          1 -3 182 -2 91 vhcurveto
          -276 -11 rlineto
          endchar
        </CharString>
        <CharString name="Gamma">
          -53 464 697 rmoveto
          -3 -60 -61 -1 -61 hhcurveto
          -237 hlineto
          -3 -20 26 -22 rlineto
          21 -18 -5 -50 -30 vvcurveto
          -92 -4 -274 -3 -183 vhcurveto
          10 -11 77 23 rlineto
          -3 178 0 178 177 vvcurveto
          37 -2 61 38 3 vhcurveto
          1 20 21 1 20 hhcurveto
          59 95 1 -49 15 hvcurveto
          25 -82 rlineto
          25 hlineto
          endchar
        </CharString>
        <CharString name="H">
          161 699 32 rmoveto
          -7 -70 11 36 hvcurveto
          -3 81 -1 81 81 vvcurveto
          121 2 120 9 121 vhcurveto
          -5 6 -88 -17 rlineto
          -86 3 -104 -86 vvcurveto
          -6 -1 -6 -11 vhcurveto
          -346 hlineto
          -10 -2 7 5 92 1 123 12 68 hvcurveto
          -5 5 rlineto
          -162 hlineto
          -7 -7 1 -19 57 -20 14 4 2 -27 rlinecurve
          6 -83 0 -83 -83 vvcurveto
          -122 0 -129 -10 -113 vhcurveto
          6 -5 92 28 rlineto
          -6 50 0 44 58 54 1 57 45 vvcurveto
          7 6 5 7 vhcurveto
          343 hlineto
          9 3 -7 -5 -97 -3 -119 -2 -97 hvcurveto
          11 -21 rlineto
          149 hlineto
          6 14 rlineto
          endchar
        </CharString>
        <CharString name="I">
          -265 275 23 rmoveto
          -1 -43 11 6 -21 hvcurveto
          -42 11 11 75 -1 43 rrcurveto
          -1 61 -1 62 67 vvcurveto
          78 -6 119 9 59 vhcurveto
          1 12 8 11 13 3 67 15 rcurveline
          21 vlineto
          -6 -80 callsubr
          -22 vlineto
          80 -18 7 5 2 -30 rrcurveto
          3 -38 0 -38 -39 vvcurveto
          -363 vlineto
          -4 -83 13 -7 -98 -19 rrcurveto
          -26 265 vlineto
          endchar
        </CharString>
        <CharString name="Iacute">
          -265 252 -87 callsubr
          185 -708 -91 callsubr
        </CharString>
        <CharString name="Icircumflex">
          -265 -26 732 -106 callsubr
          132 -890 -91 callsubr
        </CharString>
        <CharString name="Idieresis">
          -265 297 816 -107 callsubr
          180 -793 -91 callsubr
        </CharString>
        <CharString name="Igrave">
          -265 7 886 -105 callsubr
          221 -899 -91 callsubr
        </CharString>
        <CharString name="J">
          -280 175 608 rmoveto
          18 9 17 12 3 vhcurveto
          68 14 2 24 -7 -80 callsubr
          -21 vlineto
          72 -18 rlineto
          12 -3 4 -23 -11 vvcurveto
          -512 vlineto
          -202 -47 -61 -78 -49 vhcurveto
          14 -18 rlineto
          134 69 62 101 155 vvcurveto
          endchar
        </CharString>
        <CharString name="K">
          48 178 319 rmoveto
          108 -109 112 -105 105 -112 85 31 rcurveline
          1 11 -61 54 -165 164 -107 107 rlinecurve
          -4 4 -1 2 3 vvcurveto
          3 5 5 3 3 vhcurveto
          291 294 1 9 rlineto
          -90 hlineto
          -287 -326 -8 1 rlineto
          202 4 83 11 33 vhcurveto
          -7 7 rlineto
          -158 hlineto
          -8 -7 -2 -17 rlineto
          6 60 -16 -17 9 hvcurveto
          4 -10 1 -11 -10 vvcurveto
          -594 vlineto
          8 -5 81 29 rlineto
          -6 97 0 98 98 vvcurveto
          endchar
        </CharString>
        <CharString name="L">
          -51 482 58 rmoveto
          -1 -6 -182 -14 -104 hhcurveto
          -5 -7 7 6 -1 hvcurveto
          -4 108 -3 116 113 vvcurveto
          80 2 78 4 73 vhcurveto
          1 11 5 12 12 2 rrcurveto
          5 21 43 9 1 hhcurveto
          21 vlineto
          -6 6 rlineto
          -237 hlineto
          -7 -7 -1 -17 rlineto
          1 37 -8 -4 20 hvcurveto
          15 -3 6 -16 -14 vvcurveto
          -478 vlineto
          -52 -6 -53 -16 -22 vhcurveto
          -14 vlineto
          138 201 0 -7 74 hvcurveto
          14 53 rlineto
          endchar
        </CharString>
        <CharString name="Lambda">
          203 368 673 rmoveto
          -115 -227 -123 -222 -127 -220 13 -10 rcurveline
          27 4 26 9 25 10 28 66 146 294 95 188 rrcurveto
          12 hlineto
          63 -188 59 -190 68 -186 23 -8 rcurveline
          53 10 52 14 52 16 1 22 rcurveline
          -67 -3 -13 -1 -14 8 -5 12 rlinecurve
          -96 200 -63 212 -54 215 rrcurveto
          endchar
        </CharString>
        <CharString name="M">
          417 475 147 rmoveto
          -4 -2 -6 -5 -4 hhcurveto
          -4 -5 10 4 -2 hvcurveto
          -83 177 -94 200 -55 161 rrcurveto
          -176 hlineto
          -7 -7 -2 -22 68 -19 rlineto
          18 -5 10 -16 -18 vvcurveto
          -4 0 -4 -1 -4 vhcurveto
          -27 -198 -35 -197 -38 -196 7 -3 rcurveline
          75 26 rlineto
          90 7 34 435 21 hhcurveto
          4 4 -5 -5 3 hvcurveto
          63 -128 94 -229 75 -180 rrcurveto
          30 hlineto
          286 554 rlineto
          5 3 5 3 3 hhcurveto
          5 3 -7 -8 hvcurveto
          2 -66 8 -246 -25 vvcurveto
          -182 vlineto
          -26 33 -9 30 40 52 18 16 44 vhcurveto
          24 vlineto
          -2 -18 -25 -4 -13 hhcurveto
          -33 -22 27 29 -3 hvcurveto
          -17 164 -1 153 164 vvcurveto
          44 -2 37 27 14 vhcurveto
          12 -103 vlineto
          endchar
        </CharString>
        <CharString name="N">
          187 577 678 -77 callsubr
        </CharString>
        <CharString name="Ntilde">
          187 393 841 -103 callsubr
          137 -142 -77 callsubr
        </CharString>
        <CharString name="O">
          192 320 -18 -100 callsubr
        </CharString>
        <CharString name="OE">
          452 896 384 -62 callsubr
          -117 -1 rlineto
          13 -37 -39 6 -39 -39 callsubr
          47 45 6 12 40 vhcurveto
          528 -82 callsubr
          -756 12 rmoveto
          152 64 160 173 99 62 -62 -80 34 vhcurveto
          -363 vlineto
          -76 -34 -62 -56 -97 hhcurveto
          -39 -61 10 67 -60 hvcurveto
          -62 68 -17 86 94 vvcurveto
          endchar
        </CharString>
        <CharString name="Oacute">
          209 557 918 -104 callsubr
          -75 -782 -100 callsubr
        </CharString>
        <CharString name="Ocircumflex">
          192 218 742 -106 callsubr
          -67 -941 -100 callsubr
        </CharString>
        <CharString name="Odieresis">
          192 541 826 -107 callsubr
          -19 -844 -100 callsubr
        </CharString>
        <CharString name="Ograve">
          192 251 896 -105 callsubr
          22 -950 -100 callsubr
        </CharString>
        <CharString name="Omega">
          360 853 60 rmoveto
          -70 -96 -5 -4 -85 hvcurveto
          12 vlineto
          135 55 50 138 129 vvcurveto
          153 -69 151 -237 -99 -99 -23 -71 -71 vhcurveto
          -68 -68 -28 -93 -96 vvcurveto
          -113 30 -97 110 -59 vhcurveto
          -6 -15 -53 5 -76 3 -61 3 rlinecurve
          -17 -61 rlineto
          3 40 40 1 41 hhcurveto
          69 69 -4 -6 70 hvcurveto
          21 55 rlineto
          -144 28 -45 130 118 vvcurveto
          160 68 165 190 167 68 -149 -137 -138 -43 -137 -154 -36 vhcurveto
          -9 -58 rlineto
          4 56 56 2 56 hhcurveto
          59 60 -2 -5 59 hvcurveto
          25 53 rlineto
          endchar
        </CharString>
        <CharString name="Oslash">
          192 320 -18 -41 callsubr
          -21 21 -25 16 -26 12 43 100 rcurveline
          -5 11 -22 5 -11 -2 -44 -100 rlineto
          9 -31 -33 4 -33 -22 callsubr
          -129 45 -133 118 -51 vhcurveto
          -46 -106 3 -14 32 -8 50 114 rlineto
          -6 23 26 -3 28 hhcurveto
          51 678 rmoveto
          41 35 -11 -18 29 hvcurveto
          -240 -554 -8 7 -7 8 -8 8 rlinecurve
          -23 callsubr
          230 -324 rmoveto
          -150 -62 -163 -166 -27 -37 5 24 -40 vhcurveto
          240 553 rlineto
          66 -65 26 -111 -93 vvcurveto
          endchar
        </CharString>
        <CharString name="Otilde">
          192 379 851 -103 callsubr
          -106 -848 -100 callsubr
        </CharString>
        <CharString name="P">
          -18 172 22 rmoveto
          -1 101 -6 126 25 -44 callsubr
          -257 -46 callsubr
          rlineto
          147 646 rmoveto
          92 81 -30 -104 -111 -94 -38 callsubr
        </CharString>
        <CharString name="Phi">
          187 234 657 rmoveto
          63 -9 rlineto
          13 -2 10 -12 -14 vvcurveto
          -12 vlineto
          -8 -7 -82 -2 -81 -29 -57 -58 rlinecurve
          -47 -48 -17 -67 -65 vvcurveto
          -173 141 -71 144 -2 vhcurveto
          7 -6 -2 -16 -6 -22 -16 -4 rlinecurve
          -62 -15 rlineto
          -21 268 24 vlineto
          -59 12 -21 4 -13 18 -3 20 rlinecurve
          8 6 72 3 92 27 52 52 rlinecurve
          53 53 20 77 75 vvcurveto
          130 -77 98 -213 vhcurveto
          -7 7 rlineto
          13 vlineto
          14 9 14 15 2 vhcurveto
          63 10 rlineto
          25 vlineto
          -259 -2 rlineto
          179 -111 rmoveto
          109 -2 89 -48 -171 vvcurveto
          -119 -60 -116 -139 -3 vhcurveto
          -6 8 rlineto
          443 vlineto
          -93 -451 rmoveto
          -126 3 -67 121 109 vvcurveto
          116 71 105 122 5 vhcurveto
          7 -8 rlineto
          -444 vlineto
          endchar
        </CharString>
        <CharString name="Pi">
          123 668 686 rmoveto
          -2 -81 -119 -3 -44 hhcurveto
          -198 hlineto
          -75 -75 4 5 -75 hvcurveto
          -30 vlineto
          57 -17 9 -3 9 -8 rrcurveto
          12 -12 1 -56 -30 vvcurveto
          -73 vlineto
          -154 -1 -152 -7 -153 vhcurveto
          7 -6 85 19 rlineto
          -2 103 -3 122 82 vvcurveto
          102 0 101 7 101 vhcurveto
          8 8 6 6 vhcurveto
          289 hlineto
          2 11 -3 -10 hvcurveto
          1 -108 1 -121 -108 vvcurveto
          -98 0 -97 -3 -98 vhcurveto
          14 -11 80 22 rlineto
          -10 135 -2 134 135 vvcurveto
          101 2 115 5 7 vhcurveto
          4 3 4 2 5 1 76 17 rcurveline
          endchar
        </CharString>
        <CharString name="Psi">
          191 443 251 rmoveto
          117 2 74 32 31 203 16 90 1 55 44 28 -3 18 rcurveline
          -35 -4 -35 -8 -34 -12 -12 -43 -1 -45 -6 -44 -18 -127 -29 -114 -112 -6 -7 6 rcurveline
          -2 58 -1 59 59 vvcurveto
          75 6 74 7 75 vhcurveto
          -4 8 -86 -23 rlineto
          6 -82 0 -120 -100 vvcurveto
          -83 vlineto
          -6 -7 rlineto
          -150 8 -18 180 132 vvcurveto
          58 -7 41 -36 -12 -20 0 -2 -3 vhcurveto
          -108 -36 7 -22 63 10 rlineto
          2 hlineto
          67 -47 -105 -167 49 hvcurveto
          -90 23 71 -34 119 hhcurveto
          6 -6 rlineto
          -155 vlineto
          -9 -7 -36 -22 -4 vhcurveto
          -68 -12 rlineto
          -27 266 27 vlineto
          -57 12 rlineto
          -22 5 -11 21 22 vvcurveto
          -2 158 rlineto
          endchar
        </CharString>
        <CharString name="Q">
          195 722 -174 rmoveto
          -6 -23 -48 -9 -16 hhcurveto
          -89 -42 46 21 -15 hvcurveto
          -20 26 -26 49 -16 30 4 10 rcurveline
          63 15 70 30 45 49 42 46 11 33 15 44 rrcurveto
          13 41 6 18 97 vvcurveto
          83 -20 110 -63 63 vhcurveto
          58 -58 -78 18 -77 hhcurveto
          -95 -95 -19 -70 -68 hvcurveto
          -74 -76 -27 -95 -138 vvcurveto
          -90 29 -90 56 -63 vhcurveto
          -55 49 77 -18 69 hhcurveto
          -101 62 75 -118 116 hhcurveto
          51 65 25 16 39 hvcurveto
          -364 216 rmoveto
          -53 -55 30 40 -38 hvcurveto
          -62 64 -23 89 89 vvcurveto
          147 50 179 192 151 74 -165 -157 -140 -50 -176 -186 vhcurveto
          endchar
        </CharString>
        <CharString name="R">
          3 275 331 rmoveto
          119 13 96 56 139 vvcurveto
          93 -81 47 -122 vhcurveto
          -272 hlineto
          -6 -6 -1 -17 rlineto
          9 68 -13 -32 hvcurveto
          -57 3 -100 -15 vvcurveto
          -145 -1 -146 -8 -145 vhcurveto
          11 -9 83 29 rlineto
          -5 96 0 97 96 vvcurveto
          6 9 -4 -5 5 hvcurveto
          29 -29 127 -163 93 -119 99 26 rcurveline
          9 vlineto
          -263 296 rlineto
          -106 47 rmoveto
          5 4 175 2 64 vhcurveto
          19 1 3 7 8 hhcurveto
          40 hlineto
          78 89 -21 -96 -119 -106 -49 -110 -7 -2 9 6 hvcurveto
          endchar
        </CharString>
        <CharString name="S">
          -61 451 606 rmoveto
          83 -44 -60 13 -73 hhcurveto
          -109 -103 -65 -125 -98 62 -48 121 -52 hvcurveto
          60 -26 61 -54 -56 vvcurveto
          -84 -65 -63 -78 -71 -41 51 70 -21 vhcurveto
          -17 1 -57 -66 rlineto
          -73 28 68 -29 69 hhcurveto
          127 146 92 132 80 -54 54 -105 46 hvcurveto
          -78 34 -75 46 78 vvcurveto
          65 47 53 64 68 37 -46 -66 17 vhcurveto
          13 -3 rlineto
          endchar
        </CharString>
        <CharString name="Sigma">
          26 299 362 rmoveto
          4 7 7 9 6 vvcurveto
          6 -2 5 -3 5 vhcurveto
          -137 222 11 13 rlineto
          331 hlineto
          22 49 -4 11 rlineto
          -5 -102 -102 -3 -102 hhcurveto
          -36 -36 0 1 -36 hvcurveto
          -68 -47 152 -225 14 -20 14 -24 8 -22 rlinecurve
          -10 -25 -25 -34 -19 -26 -163 -216 rcurveline
          -4 -19 -5 -27 -1 vvcurveto
          90 90 7 90 hhcurveto
          89 88 -1 -3 89 hvcurveto
          15 89 -3 10 rlineto
          -8 -53 -54 -2 -54 hhcurveto
          -89 -88 0 2 -89 hvcurveto
          -5 10 rlineto
          endchar
        </CharString>
        <CharString name="T">
          6 543 696 rmoveto
          -4 -88 -99 -6 -75 hhcurveto
          -177 0 8 3 -95 hvcurveto
          -7 -7 rlineto
          -48 vlineto
          8 -7 rlineto
          4 111 79 3 24 hhcurveto
          5 4 -2 -4 hvcurveto
          1 -30 1 -144 -82 vvcurveto
          -127 -5 -127 -8 -127 vhcurveto
          9 -9 100 27 rlineto
          -7 121 -6 179 121 vvcurveto
          121 -1 85 14 21 21 -2 -8 168 vhcurveto
          8 7 rlineto
          48 vlineto
          endchar
        </CharString>
        <CharString name="Theta">
          233 348 -12 rmoveto
          196 194 83 310 87 -20 93 -63 63 hvcurveto
          57 -57 -84 20 -79 hhcurveto
          -152 -139 -58 -100 -58 hvcurveto
          -43 -74 -2 -42 -96 vvcurveto
          -99 26 -102 71 -71 vhcurveto
          -55 54 80 -16 76 hhcurveto
          43 43 rmoveto
          -183 -74 166 148 159 53 159 194 68 69 -18 -49 49 hvcurveto
          57 -57 20 -82 -80 vvcurveto
          -91 -6 -119 -59 -59 vhcurveto
          -50 -50 -53 -27 -85 hhcurveto
          -171 210 rmoveto
          27 65 hlineto
          14 15 2 10 vhcurveto
          2 46 51 2 40 35 34 -4 35 hhcurveto
          22 -3 -42 -22 hvcurveto
          -5 -1 -4 -5 vvcurveto
          30 -1 rlineto
          214 -28 vlineto
          2 -51 rlineto
          -31 1 -83 9 -40 hhcurveto
          -53 -114 -5 21 hvcurveto
          19 -4 19 19 vvcurveto
          -25 hlineto
          3 -108 rlineto
          endchar
        </CharString>
        <CharString name="Thorn">
          -18 168 679 rmoveto
          -151 -46 callsubr
          83 28 rlineto
          -1 101 -6 22 24 -44 callsubr
          -105 hlineto
          1 27 1 53 4 19 rrcurveto
          61 -138 rmoveto
          92 81 -30 -104 -111 -96 -38 callsubr
        </CharString>
        <CharString name="U">
          167 183 674 -95 callsubr
        </CharString>
        <CharString name="Uacute">
          167 482 -87 callsubr
          -137 -57 -95 callsubr
        </CharString>
        <CharString name="Ucircumflex">
          167 204 732 -106 callsubr
          -190 -239 -95 callsubr
        </CharString>
        <CharString name="Udieresis">
          167 527 816 -107 callsubr
          -142 -142 -95 callsubr
        </CharString>
        <CharString name="Ugrave">
          167 237 886 -105 callsubr
          -101 -248 -95 callsubr
        </CharString>
        <CharString name="Upsilon">
          137 672 546 rmoveto
          75 -21 76 -85 -155 -48 -199 -123 -21 vhcurveto
          -9 hlineto
          130 -13 -32 192 -146 hhcurveto
          -94 -29 -73 -69 -12 hvcurveto
          19 -7 rlineto
          40 12 27 37 47 hhcurveto
          84 48 -102 -77 21 hvcurveto
          20 -73 7 -76 -76 vvcurveto
          -75 0 -75 -4 -75 vhcurveto
          17 -7 67 36 rlineto
          322 2 113 127 127 vhcurveto
          20 20 25 11 28 hhcurveto
          52 18 -38 -37 6 hvcurveto
          endchar
        </CharString>
        <CharString name="V">
          162 614 680 rmoveto
          -25 -43 -25 -44 -19 -45 -119 -274 rcurveline
          -41 -89 -23 -52 -7 -2 -2 1 -4 2 -2 4 -71 182 -55 187 -39 191 -175 -10 rcurveline
          -7 -6 1 -27 56 -8 23 -5 16 -33 rlinecurve
          20 -44 13 -46 15 -46 143 -482 rcurveline
          10 -7 68 26 57 165 73 160 72 133 rlinecurve
          12 21 62 110 65 79 -6 19 rcurveline
          endchar
        </CharString>
        <CharString name="W">
          505 965 675 rmoveto
          -17 -32 -22 -39 -21 -46 -109 -242 rcurveline
          -80 -170 rlineto
          -3 -2 -2 -4 -9 hhcurveto
          -18 -19 131 55 -12 hvcurveto
          -31 146 -31 151 62 vvcurveto
          -7 6 -76 -29 -45 -126 -132 -291 -42 -83 rlinecurve
          -2 -1 -3 -2 -3 hhcurveto
          -2 -4 1 5 -1 hvcurveto
          -39 175 -59 270 -15 81 -156 -3 rcurveline
          -8 -7 2 -24 31 -6 30 -7 11 -28 rlinecurve
          30 -77 20 -81 20 -81 30 -126 25 -127 23 -128 11 -5 rcurveline
          64 29 47 155 81 179 54 121 rlinecurve
          28 63 rlineto
          5 2 4 7 3 hhcurveto
          5 1 -7 -5 1 hvcurveto
          40 -179 37 -179 32 -181 12 -8 rcurveline
          60 27 65 157 116 230 47 77 rlinecurve
          115 188 rlineto
          21 vlineto
          endchar
        </CharString>
        <CharString name="X">
          79 612 687 rmoveto
          -95 -13 -9 -21 -138 -198 -33 -33 rlinecurve
          -9 hlineto
          -147 266 -45 -3 -76 -4 -25 -1 rlinecurve
          -7 -6 rlineto
          -25 vlineto
          41 -11 42 -10 22 -38 rrcurveto
          -82 47 93 -163 5 hhcurveto
          -271 -329 rlineto
          -16 vlineto
          94 11 36 76 111 157 43 52 rlinecurve
          12 hlineto
          143 -239 13 -22 15 -22 18 -18 rlinecurve
          14 -6 110 27 rlineto
          16 vlineto
          -5 4 -8 2 -22 14 -7 7 rlinecurve
          -60 72 -40 48 -115 189 -1 12 rlinecurve
          4 7 33 44 30 35 187 206 rcurveline
          endchar
        </CharString>
        <CharString name="Xi">
          68 49 695 rmoveto
          -5 -57 -1 -58 -7 -57 27 2 rcurveline
          23 64 rlineto
          20 7 24 9 20 hhcurveto
          346 hlineto
          18 23 -12 -21 4 hvcurveto
          16 -61 rlineto
          34 hlineto
          -22 164 rlineto
          -425 -359 rmoveto
          2 47 47 1 47 hhcurveto
          55 54 -1 -1 54 hvcurveto
          15 72 rlineto
          -3 -64 -63 -2 -64 hhcurveto
          -37 -37 0 2 -37 hvcurveto
          405 -252 rmoveto
          -63 -18 1 -12 -22 hhcurveto
          -401 hlineto
          -17 -15 11 19 -5 hvcurveto
          -14 51 -26 -1 rlineto
          4 -51 7 -100 -1 vvcurveto
          -2 172 343 -4 1 hhcurveto
          15 153 rlineto
          endchar
        </CharString>
        <CharString name="Y">
          47 231 -2 rmoveto
          11 -9 90 29 -9 288 83 128 74 96 111 145 rlinecurve
          -4 18 -84 callsubr
          149 -295 rcurveline
          -100 0 -101 -3 -100 vhcurveto
          endchar
        </CharString>
        <CharString name="Yacute">
          47 451 -87 callsubr
          -58 -733 rmoveto
          11 -9 90 29 -9 288 83 128 74 96 111 145 rlinecurve
          -4 18 -84 callsubr
          149 -295 rcurveline
          -100 0 -101 -3 -100 vhcurveto
          endchar
        </CharString>
        <CharString name="Z">
          58 552 683 rmoveto
          -149 -148 3 9 -148 hvcurveto
          -9 -8 rlineto
          -54 vlineto
          6 -5 rlineto
          3 27 102 6 187 hhcurveto
          7 -10 -424 -606 1 -21 rlineto
          192 254 0 -12 129 hvcurveto
          18 71 -9 9 rlineto
          -429 hlineto
          -6 -7 90 139 174 271 135 193 rlinecurve
          endchar
        </CharString>
        <CharString name="a">
          3 278 466 -102 callsubr
        </CharString>
        <CharString name="aacute">
          3 389 702 -104 callsubr
          51 -82 -102 callsubr
        </CharString>
        <CharString name="acircumflex">
          3 111 549 -106 callsubr
          -2 -264 -102 callsubr
        </CharString>
        <CharString name="acute">
          -25 405 664 -104 callsubr
          endchar
        </CharString>
        <CharString name="acutecomb">
          -545 115 664 -104 callsubr
          endchar
        </CharString>
        <CharString name="adieresis">
          3 434 633 -107 callsubr
          46 -167 -102 callsubr
        </CharString>
        <CharString name="ae">
          207 707 -20 callsubr
          -67 -64 -25 -46 -48 vhcurveto
          39 -22 -65 20 -42 hhcurveto
          -170 -68 -140 -141 -90 36 -107 111 67 65 41 37 51 hvcurveto
          -46 25 41 -32 68 -63 callsubr
          -104 -48 rmoveto
          -18 -37 -7 -43 -42 vvcurveto
          -45 5 -46 14 -40 vhcurveto
          -21 -29 -34 -20 -37 hhcurveto
          -47 callsubr
          12 -13 3 -18 1 -19 rrcurveto
          endchar
        </CharString>
        <CharString name="agrave">
          3 144 703 -105 callsubr
          87 -273 -102 callsubr
        </CharString>
        <CharString name="alpha">
          64 410 307 rmoveto
          -10 1 rlineto
          55 -15 -34 105 -89 hhcurveto
          -151 -81 -161 -138 -68 25 -113 81 60 60 50 44 36 hvcurveto
          65 78 11 -2 46 -134 rlineto
          -25 6 25 -19 23 hhcurveto
          34 49 42 54 68 hvcurveto
          -7 19 -10 1 rlineto
          -21 -27 -35 -25 -25 hhcurveto
          -48 -34 127 60 -16 hvcurveto
          1 92 138 46 69 vhcurveto
          -51 23 rlineto
          -155 -256 rmoveto
          -72 -51 -58 -78 -58 hhcurveto
          -69 -17 97 57 74 24 121 92 76 27 -87 -112 34 hvcurveto
          endchar
        </CharString>
        <CharString name="ampersand">
          193 326 356 rmoveto
          3 23 23 2 23 hhcurveto
          22 23 0 -16 16 hvcurveto
          21 -21 15 -28 -30 vvcurveto
          -48 -12 -49 -26 -38 vhcurveto
          -84 86 -64 93 -48 106 17 8 74 43 30 28 rrcurveto
          33 30 14 37 44 vvcurveto
          55 -52 37 -50 -102 -61 -87 -91 -42 10 -42 16 -39 vhcurveto
          -111 -68 -47 -43 -91 vvcurveto
          -55 23 -54 39 -39 vhcurveto
          -43 43 64 -12 60 hhcurveto
          58 55 28 32 40 hvcurveto
          5 -4 rlineto
          -34 35 45 -25 50 hhcurveto
          109 43 106 89 16 hvcurveto
          -21 5 rlineto
          -64 -15 -30 -72 -71 hhcurveto
          -40 -39 31 28 -26 hvcurveto
          -3 3 rlineto
          41 53 33 60 67 vvcurveto
          21 -4 21 -5 21 vhcurveto
          49 57 0 -7 41 hvcurveto
          3 48 rlineto
          -3 -30 -74 0 -52 hhcurveto
          -67 -77 0 3 -56 hvcurveto
          -78 36 rmoveto
          -17 40 -11 41 43 vvcurveto
          46 5 58 60 32 35 -46 -35 -65 -21 -30 -83 -52 vhcurveto
          146 -367 rmoveto
          -26 -32 -38 -11 -53 hhcurveto
          -99 -67 94 93 63 21 50 68 45 hvcurveto
          46 -110 74 -109 80 -89 rrcurveto
          endchar
        </CharString>
        <CharString name="aring">
          3 177 613 -52 callsubr
          71 -147 -102 callsubr
        </CharString>
        <CharString name="asciitilde">
          127 342 291 rmoveto
          25 -41 -50 31 -44 hhcurveto
          -59 -36 -49 -58 -29 hvcurveto
          22 -12 rlineto
          53 29 21 24 40 hhcurveto
          29 27 -13 -15 24 hvcurveto
          99 -63 rlineto
          -20 31 36 -16 38 hhcurveto
          55 37 49 48 20 hvcurveto
          -21 11 rlineto
          -37 -20 -20 -30 -40 hhcurveto
          -27 -25 12 14 -22 hvcurveto
          endchar
        </CharString>
        <CharString name="asterisk">
          -244 175 448 rmoveto
          -8 36 -2 33 -1 35 26 -20 24 -22 17 -19 26 29 rcurveline
          -28 13 -29 20 -31 23 28 20 28 17 32 15 -25 31 rcurveline
          -20 -21 -23 -21 -25 -20 2 33 2 29 7 33 rrcurveto
          -40 hlineto
          8 -33 0 -31 -32 vvcurveto
          -25 19 -21 19 -22 21 -27 -28 rcurveline
          29 -15 27 -16 29 -21 -26 -18 -27 -18 -34 -17 21 -35 rcurveline
          24 28 26 23 27 21 -1 -43 -2 -30 -6 -38 rrcurveto
          endchar
        </CharString>
        <CharString name="at">
          183 472 371 rmoveto
          16 -25 -35 8 -25 hhcurveto
          -132 -56 -97 -99 -64 29 -74 88 46 44 22 22 39 hvcurveto
          12 -3 rlineto
          -24 4 11 -17 29 hhcurveto
          34 61 34 27 24 hvcurveto
          39 39 27 53 5 63 14 185 -185 137 -175 -34 -109 -21 -98 -87 -52 -86 -56 -92 -9 -122 57 -98 44 -76 83 -68 105 -8 43 42 rcurveline
          -14 15 -67 5 -58 28 -42 39 rlinecurve
          -98 105 6 189 91 109 42 35 50 25 53 10 168 32 163 -114 -13 -178 rrcurveto
          -54 -4 -23 -90 -63 hhcurveto
          -27 -2 29 17 hvcurveto
          27 -1 28 27 vvcurveto
          52 0 52 4 52 vhcurveto
          -4 4 rlineto
          -59 -255 rmoveto
          -15 -23 -29 -16 -32 hhcurveto
          -29 -32 6 23 -17 hvcurveto
          -18 24 -6 31 1 29 1 71 24 38 18 15 rrcurveto
          18 21 26 9 29 hhcurveto
          20 19 -10 -13 14 hvcurveto
          13 -12 0 -19 -18 vvcurveto
          endchar
        </CharString>
        <CharString name="atilde">
          3 272 658 -103 callsubr
          -41 -171 -102 callsubr
        </CharString>
        <CharString name="b">
          -23 -14 640 rmoveto
          86 -13 8 7 -35 vvcurveto
          -476 vlineto
          -111 66 -22 51 114 117 80 107 35 vhcurveto
          14 43 5 44 44 vvcurveto
          84 -48 76 -93 -68 -58 -34 -40 -53 vhcurveto
          -9 5 rlineto
          33 vlineto
          82 6 81 8 82 vhcurveto
          -6 7 -169 -18 -6 -5 rlineto
          171 -314 rmoveto
          34 39 45 25 53 hhcurveto
          38 24 -23 -20 13 hvcurveto
          14 -21 16 -42 -73 vvcurveto
          -92 -41 -97 -106 -88 -11 78 113 39 2 45 2 34 vhcurveto
          endchar
        </CharString>
        <CharString name="backslash">
          -155 404 -184 rmoveto
          3 13 -388 893 -31 -7 -5 -11 389 -896 rlineto
          endchar
        </CharString>
        <CharString name="bar">
          -329 128 738 rmoveto
          -40 -8 rlineto
          -897 -92 callsubr
          endchar
        </CharString>
        <CharString name="beta">
          -15 325 392 rmoveto
          65 25 58 71 75 vvcurveto
          75 -61 60 -75 -106 -71 -57 -81 -38 vhcurveto
          -22 -47 -8 -78 -2 -51 -8 -190 4 -191 -5 -190 12 -15 rcurveline
          76 33 rlineto
          -7 125 -2 126 126 vvcurveto
          186 -6 64 22 87 vhcurveto
          61 15 35 45 68 hhcurveto
          60 41 -55 -56 -106 -80 -48 -89 hvcurveto
          -2 -36 rlineto
          2 21 21 0 21 hhcurveto
          98 67 -57 -101 -74 -36 -99 -84 -38 -34 31 38 hvcurveto
          7 vlineto
          -13 6 -49 -69 rlineto
          -35 20 36 -14 38 hhcurveto
          129 116 79 138 48 -20 50 -34 35 hvcurveto
          -30 31 -55 12 -49 2 rrcurveto
          endchar
        </CharString>
        <CharString name="braceleft">
          -232 303 -154 rmoveto
          -97 -36 2 182 91 7 120 -92 32 hvcurveto
          1 vlineto
          64 23 21 88 133 vvcurveto
          66 -4 101 50 13 vhcurveto
          7 27 31 1 29 hhcurveto
          24 vlineto
          -160 -24 -1 -215 -93 6 -88 -32 -28 hvcurveto
          -19 -22 -24 -1 -39 hhcurveto
          -26 vlineto
          31 37 -2 -21 19 hvcurveto
          25 -28 0 -105 -69 vvcurveto
          -101 -8 -85 75 -20 vhcurveto
          -6 24 53 0 39 hhcurveto
          endchar
        </CharString>
        <CharString name="braceright">
          -232 10 -175 rmoveto
          149 34 -1 213 104 -3 101 61 15 hvcurveto
          17 4 19 2 18 -1 rrcurveto
          26 vlineto
          -107 -4 36 193 114 6 30 -32 40 hvcurveto
          -27 34 -53 -3 -78 1 rrcurveto
          -24 vlineto
          62 50 4 -74 15 hvcurveto
          12 -79 -10 -81 11 -81 9 -68 32 -40 37 -13 rrcurveto
          -1 vlineto
          -92 -33 7 -123 -87 vvcurveto
          -67 3 -98 -56 -13 vhcurveto
          -6 -23 -30 0 -27 hhcurveto
          endchar
        </CharString>
        <CharString name="bracketleft">
          -287 247 736 rmoveto
          -54 -66 0 5 -39 hvcurveto
          -866 vlineto
          5 52 53 0 54 hhcurveto
          24 vlineto
          -119 13 rlineto
          782 vlineto
          119 13 rlineto
          endchar
        </CharString>
        <CharString name="bracketright">
          -287 130 -83 rmoveto
          -119 -13 rlineto
          -24 vlineto
          54 53 0 -5 52 hvcurveto
          866 vlineto
          -5 -39 -66 0 -54 hhcurveto
          -24 vlineto
          119 -13 rlineto
          endchar
        </CharString>
        <CharString name="brokenbar">
          -337 124 738 rmoveto
          -40 -8 rlineto
          -403 -92 callsubr
          -91 vmoveto
          -40 -8 rlineto
          -403 -92 callsubr
          endchar
        </CharString>
        <CharString name="bullet">
          -213 69 265 -32 callsubr
          endchar
        </CharString>
        <CharString name="c">
          -90 425 116 rmoveto
          -59 callsubr
          89 73 54 61 62 hvcurveto
          -11 18 rlineto
          endchar
        </CharString>
        <CharString name="ccedilla">
          -90 180 -122 -53 callsubr
          15 36 rcurveline
          71 14 59 46 52 51 -11 18 rcurveline
          -9 2 rlineto
          -59 callsubr
          hvcurveto
          1 2 0 1 hhcurveto
          endchar
        </CharString>
        <CharString name="cedilla">
          -25 188 -57 callsubr
        </CharString>
        <CharString name="cedillacomb">
          -545 -72 -57 callsubr
        </CharString>
        <CharString name="cent">
          -84 418 116 rmoveto
          -38 -44 -50 -31 -59 hhcurveto
          -2 388 hlineto
          39 -5 29 -38 8 -62 17 -6 rcurveline
          -14 callsubr
          -11 -10 -1 -1 -10 hvcurveto
          169 vlineto
          -40 -8 rlineto
          -168 vlineto
          -109 -29 -73 -95 -125 vvcurveto
          -99 10 -137 163 vhcurveto
          3 3 0 3 hhcurveto
          -148 -92 callsubr
          146 vlineto
          67 15 58 45 50 49 -11 18 rcurveline
          -303 134 rmoveto
          77 34 85 65 21 vhcurveto
          -378 vlineto
          -81 24 -18 96 75 vvcurveto
          endchar
        </CharString>
        <CharString name="chi">
          -20 284 206 rmoveto
          -90 192 rlineto
          30 -14 -23 38 -37 hhcurveto
          -25 -25 -8 -15 -19 hvcurveto
          -63 -48 15 -21 rlineto
          15 19 28 22 18 hhcurveto
          29 22 -34 -28 14 hvcurveto
          35 -72 74 -142 -1 vvcurveto
          -74 -96 -69 -99 -68 -100 50 -30 rcurveline
          17 6 36 91 60 89 58 88 rlinecurve
          10 hlineto
          -147 62 42 -133 66 hhcurveto
          41 54 32 25 43 hvcurveto
          -8 23 rlineto
          -11 -21 -24 -4 -24 hhcurveto
          -62 -70 170 118 -53 hvcurveto
          15 21 17 19 16 19 179 206 rcurveline
          -1 7 -33 32 -20 -4 -187 -250 rlineto
          endchar
        </CharString>
        <CharString name="circumflex">
          -45 103 511 -106 callsubr
          endchar
        </CharString>
        <CharString name="circumflexcomb">
          -545 -163 511 -106 callsubr
          endchar
        </CharString>
        <CharString name="colon">
          -361 35 398 -88 callsubr
          -353 vmoveto
          -30 callsubr
          endchar
        </CharString>
        <CharString name="comma">
          -312 77 -210 rmoveto
          71 82 33 51 50 vvcurveto
          35 -35 130 -53 -25 -34 -22 -26 -10 3 -11 4 -5 vhcurveto
          70 -83 rlineto
          9 -11 4 -17 -14 vvcurveto
          -40 -31 -49 -35 -46 vhcurveto
          endchar
        </CharString>
        <CharString name="copyright">
          87 -68 callsubr
          413 126 rmoveto
          42 -31 -46 14 -52 hhcurveto
          -63 -60 -18 -36 -44 hvcurveto
          -42 -35 -13 -49 -48 vvcurveto
          -49 16 -49 42 -35 vhcurveto
          -28 34 49 -10 48 hhcurveto
          52 48 22 24 43 hvcurveto
          -10 14 rlineto
          -19 -34 -37 -15 -41 hhcurveto
          -49 -26 14 28 -33 hvcurveto
          -20 16 -28 50 46 vvcurveto
          44 11 49 36 31 vhcurveto
          22 26 38 11 36 hhcurveto
          49 39 -20 -45 20 hvcurveto
          8 hlineto
          endchar
        </CharString>
        <CharString name="currency">
          45 75 484 rmoveto
          49 -49 rlineto
          -30 -34 -12 -36 -52 vvcurveto
          -50 12 -35 30 -38 vhcurveto
          -49 -49 45 -45 48 48 rlineto
          -30 37 37 -12 53 hhcurveto
          53 37 12 30 37 hvcurveto
          48 -48 45 45 -49 49 rlineto
          30 38 12 35 50 vvcurveto
          52 -12 36 -30 34 vhcurveto
          49 49 -47 47 -48 -48 rlineto
          28 -38 -39 13 -48 hhcurveto
          -48 -40 -13 -28 -37 hvcurveto
          -48 48 rlineto
          176 -66 rmoveto
          81 70 -70 -82 -84 -69 -68 -85 -85 -69 68 85 83 70 68 87 hvcurveto
          endchar
        </CharString>
        <CharString name="d">
          6 269 638 rmoveto
          33 47 -1 -35 11 hvcurveto
          7 -26 -1 -72 1 -53 -7 -4 rcurveline
          9 -27 -27 6 -29 hhcurveto
          -162 -75 -142 -140 -89 35 -109 114 59 64 37 35 51 hvcurveto
          -35 2 18 -38 39 hhcurveto
          39 51 36 27 39 hvcurveto
          -8 23 rlineto
          -8 -20 -31 -11 -10 hhcurveto
          -30 -6 33 29 -2 hvcurveto
          565 vlineto
          -8 9 -163 -20 -5 -4 rlineto
          95 -565 rmoveto
          -27 -27 -56 -20 -35 hhcurveto
          -90 -28 85 70 94 34 131 112 83 11 -64 -54 hvcurveto
          endchar
        </CharString>
        <CharString name="degree">
          -213 69 -83 callsubr
        </CharString>
        <CharString name="delta">
          -122 349 687 rmoveto
          4 -29 -24 3 -27 hhcurveto
          -73 -63 -21 -71 -35 hvcurveto
          -6 -12 -5 -12 -13 vvcurveto
          -38 54 -50 38 -35 vhcurveto
          -77 -77 -81 -102 -103 vvcurveto
          -82 44 -87 104 131 103 131 129 55 -30 50 -38 39 vhcurveto
          -95 91 rlineto
          -80 76 -25 16 27 vvcurveto
          32 32 9 33 66 38 -7 -2 35 vhcurveto
          15 42 rlineto
          -151 -257 rmoveto
          60 -60 76 -81 -72 vvcurveto
          -83 -45 -82 -75 -85 -36 96 72 76 35 62 70 72 vhcurveto
          endchar
        </CharString>
        <CharString name="dieresis">
          -25 420 595 -107 callsubr
          endchar
        </CharString>
        <CharString name="dieresiscomb">
          -545 160 595 -107 callsubr
          endchar
        </CharString>
        <CharString name="divide">
          279 471 514 -89 callsubr
          273 -238 -16 callsubr
          -267 -238 -89 callsubr
          endchar
        </CharString>
        <CharString name="dollar">
          -69 439 593 rmoveto
          79 -42 -57 12 -69 -1 -1 0 -1 hhcurveto
          114 vlineto
          -40 -8 rlineto
          -110 vlineto
          -86 -14 -73 -60 -102 vvcurveto
          -89 54 -47 105 -46 vhcurveto
          -275 vlineto
          -2 -2 0 -2 hhcurveto
          -67 -39 49 66 -20 hvcurveto
          -16 1 -55 -63 rlineto
          -69 27 64 -28 66 hhcurveto
          15 16 1 3 15 hvcurveto
          -114 -92 callsubr
          116 vlineto
          93 29 81 74 96 vvcurveto
          76 -52 51 -100 44 vhcurveto
          -7 3 -8 4 -7 3 rrcurveto
          251 vlineto
          54 -7 29 -41 15 -57 13 -3 rcurveline
          -234 -3 rmoveto
          54 34 45 49 11 vhcurveto
          -229 vlineto
          -47 29 -36 37 53 vvcurveto
          213 -351 rmoveto
          -63 -38 -49 -52 -19 vhcurveto
          247 vlineto
          48 -27 42 -44 -45 vvcurveto
          endchar
        </CharString>
        <CharString name="dotlessi">
          -222 192 392 -98 callsubr
        </CharString>
        <CharString name="dotlessj">
          -257 18 375 -64 callsubr
        </CharString>
        <CharString name="e">
          -83 438 340 -93 callsubr
        </CharString>
        <CharString name="eacute">
          -107 354 714 -104 callsubr
          246 -220 -93 callsubr
        </CharString>
        <CharString name="ecircumflex">
          -107 76 561 -106 callsubr
          193 -402 -93 callsubr
        </CharString>
        <CharString name="edieresis">
          -107 399 615 -107 callsubr
          241 -275 -93 callsubr
        </CharString>
        <CharString name="egrave">
          -107 109 716 -105 callsubr
          282 -412 -93 callsubr
        </CharString>
        <CharString name="eight">
          -45 312 396 rmoveto
          60 37 63 63 72 vvcurveto
          82 -70 56 -102 vhcurveto
          -9 hlineto
          -81 -32 -84 -46 -98 vvcurveto
          -71 57 -58 55 -38 vhcurveto
          -11 vlineto
          -108 -63 -53 -39 -93 vvcurveto
          -45 10 -45 32 -32 vhcurveto
          -35 35 54 -10 48 hhcurveto
          119 123 78 129 80 -43 36 -106 72 hvcurveto
          -33 27 rmoveto
          -53 37 -60 54 59 vvcurveto
          39 11 28 46 30 vhcurveto
          85 43 -66 -50 -53 -30 -49 -42 -29 hvcurveto
          -41 -78 rmoveto
          82 -52 54 -39 -75 vvcurveto
          -79 -46 -57 -83 -79 -43 75 70 77 46 44 69 36 vhcurveto
          endchar
        </CharString>
        <CharString name="eight.dnom">
          230 231 -76 callsubr
        </CharString>
        <CharString name="eight.numr">
          230 506 -76 callsubr
        </CharString>
        <CharString name="epsilon">
          -175 335 430 rmoveto
          22 -31 -35 19 -39 hhcurveto
          -85 -82 -55 -96 -30 20 -34 23 -14 hvcurveto
          -7 vlineto
          -54 -25 -31 -44 -57 vvcurveto
          -79 74 -45 74 79 72 40 57 53 vhcurveto
          -8 14 -9 2 rlineto
          -32 -39 -48 -28 -46 hhcurveto
          -64 -68 40 73 54 48 27 45 16 15 -1 -4 15 hvcurveto
          21 47 rlineto
          -81 5 -58 -13 87 vvcurveto
          49 46 28 40 40 41 -21 -43 15 vhcurveto
          11 -1 rlineto
          endchar
        </CharString>
        <CharString name="epsilon1">
          -125 213 258 rmoveto
          -2 -1 -64 1 -37 hhcurveto
          -6 6 rlineto
          78 2 35 87 96 hhcurveto
          53 26 -12 -59 42 hvcurveto
          13 2 37 53 rlineto
          37 -37 -49 22 -52 hhcurveto
          -144 -105 -128 -140 -60 16 -62 43 -43 hvcurveto
          -37 37 56 -12 51 hhcurveto
          72 71 42 44 56 hvcurveto
          -12 20 -8 1 rlineto
          -33 -39 -51 -16 -51 hhcurveto
          -36 -45 5 24 -24 hvcurveto
          -35 35 -18 48 -2 49 5 6 rcurveline
          1 26 42 2 1 hhcurveto
          47 64 0 -1 30 hvcurveto
          14 42 rlineto
          endchar
        </CharString>
        <CharString name="equal">
          278 745 369 -15 callsubr
          6 -157 -15 callsubr
          endchar
        </CharString>
        <CharString name="eta">
          -5 498 -164 rmoveto
          -15 122 -2 123 123 vvcurveto
          177 11 85 -104 -64 -71 -38 -37 -56 vhcurveto
          -11 2 rlineto
          49 -3 -25 21 -41 hhcurveto
          -45 -49 -41 -29 -36 hvcurveto
          16 -18 rlineto
          14 22 28 19 19 hhcurveto
          37 2 -42 -32 hvcurveto
          -335 vlineto
          9 -10 72 25 rlineto
          -3 57 -4 67 46 vvcurveto
          53 0 83 2 24 vhcurveto
          29 41 48 29 47 hhcurveto
          105 -20 -107 -170 -105 0 -181 -1 -27 hvcurveto
          9 -11 rlineto
          endchar
        </CharString>
        <CharString name="eth">
          -84 144 662 rmoveto
          27 -16 23 -17 20 -22 -108 -57 rcurveline
          13 -39 122 65 22 -31 20 -36 18 -43 rlinecurve
          -3 -5 -37 4 -23 -1 -21 -3 rlinecurve
          -151 -24 -54 -135 20 -127 7 -46 25 -69 40 -35 41 -36 54 0 57 9 41 7 38 23 28 33 70 81 -2 114 -16 100 -15 96 -51 86 -62 62 92 49 rcurveline
          -13 39 -112 -59 -31 25 -32 19 -33 11 rlinecurve
          187 -539 rmoveto
          -8 -47 -23 -51 -52 -8 -98 -15 -41 119 -8 47 -14 90 16 133 116 18 27 4 28 -4 26 -7 14 -37 10 -39 6 -40 8 -53 3 -57 -10 -53 rrcurveto
          endchar
        </CharString>
        <CharString name="euro">
          93 425 270 rmoveto
          10 40 rlineto
          -225 hlineto
          -1 11 -1 12 11 vvcurveto
          9 0 9 1 8 vhcurveto
          242 hlineto
          10 40 rlineto
          -249 hlineto
          34 246 224 39 63 -166 14 -1 rcurveline
          57 58 -125 142 -168 -22 -101 -116 rlinecurve
          -46 -53 -26 -61 -12 -66 rrcurveto
          -65 hlineto
          -10 -40 rlineto
          70 hlineto
          -1 -15 -1 -14 -15 -5 0 -6 -5 vvcurveto
          -84 hlineto
          -10 -40 rlineto
          97 hlineto
          9 -79 27 -75 57 -57 rrcurveto
          -45 45 53 -18 52 hhcurveto
          85 -1 81 43 41 38 -17 29 rcurveline
          -71 -37 -104 -23 -77 64 -42 35 -31 60 -14 66 rrcurveto
          endchar
        </CharString>
        <CharString name="exclam">
          -329 112 186 rmoveto
          36 371 rlineto
          3 29 2 29 29 vvcurveto
          20 -7 26 -30 -32 -18 -14 -51 vhcurveto
          -1 -17 3 -22 1 -19 27 -383 rcurveline
          -42 -138 -88 callsubr
          endchar
        </CharString>
        <CharString name="exclamdown">
          -329 54 442 -88 callsubr
          58 -140 rmoveto
          -16 2 -27 -383 -1 -19 -3 -22 1 -17 rlinecurve
          -51 18 -14 32 30 7 26 20 29 -2 29 -3 29 vhcurveto
          endchar
        </CharString>
        <CharString name="f">
          -216 3 428 rmoveto
          -4 -22 5 -7 rlineto
          112 -81 callsubr
          115 hlineto
          7 6 7 22 -5 7 rlineto
          -124 -86 callsubr
          102 17 87 43 47 7 -43 -21 4 vhcurveto
          12 -4 58 54 rlineto
          27 -13 -26 27 -54 hhcurveto
          -25 callsubr
          -105 hlineto
          endchar
        </CharString>
        <CharString name="f.alt">
          -228 314 641 rmoveto
          28 -22 vlineto
          -63 -60 -37 -70 -30 hvcurveto
          -16 -36 -2 -51 -35 vvcurveto
          -6 -6 rlineto
          -105 hlineto
          -7 -6 -4 -22 5 -7 rlineto
          112 -81 callsubr
          115 hlineto
          7 6 7 22 -5 7 rlineto
          -124 -86 callsubr
          66 6 64 22 37 vhcurveto
          12 20 16 9 22 2 43 4 -10 -2 6 1 rrcurveto
          endchar
        </CharString>
        <CharString name="five">
          -45 125 594 rmoveto
          6 6 4 6 48 126 3 2 87 vhcurveto
          27 78 rlineto
          -335 hlineto
          -7 -7 rlineto
          -327 vlineto
          13 -11 rlineto
          31 32 41 22 44 hhcurveto
          103 36 -90 -82 -102 -54 -95 -112 -62 -35 57 49 -22 hvcurveto
          -11 hlineto
          -44 -56 1 -12 rlineto
          -49 41 61 -26 63 hhcurveto
          145 125 109 153 112 -74 80 -117 -46 -45 -17 -20 -41 hvcurveto
          endchar
        </CharString>
        <CharString name="five.dnom">
          103 356 -69 callsubr
        </CharString>
        <CharString name="five.numr">
          103 631 -69 callsubr
        </CharString>
        <CharString name="four">
          -45 285 669 rmoveto
          -286 -434 rlineto
          -44 284 vlineto
          7 -9 rlineto
          -63 0 -83 -5 -35 vhcurveto
          5 -6 80 33 rlineto
          -3 22 0 79 54 vvcurveto
          8 8 rlineto
          82 hlineto
          16 37 -5 7 rlineto
          -94 hlineto
          -7 9 rlineto
          155 0 272 1 27 vhcurveto
          -7 6 rlineto
          -77 -469 rmoveto
          -215 hlineto
          -5 7 1 22 84 138 38 59 rlinecurve
          29 45 30 46 34 39 rrcurveto
          1 1 2 1 2 hhcurveto
          3 2 -3 -5 hvcurveto
          -342 vlineto
          endchar
        </CharString>
        <CharString name="four.dnom">
          263 422 -73 callsubr
        </CharString>
        <CharString name="four.numr">
          -75 callsubr
        </CharString>
        <CharString name="foursuperior">
          -69 -75 callsubr
        </CharString>
        <CharString name="fraction">
          -475 245 -90 callsubr
          endchar
        </CharString>
        <CharString name="g">
          -34 365 45 rmoveto
          -130 -4 -45 -107 -106 hhcurveto
          -36 -46 41 36 -18 hvcurveto
          -14 hlineto
          -49 -62 rlineto
          -46 49 45 -10 44 hhcurveto
          61 50 15 39 51 hvcurveto
          20 15 37 34 16 44 rrcurveto
          20 58 2 71 39 vvcurveto
          209 4 72 5 91 vhcurveto
          -14 6 -51 -29 rlineto
          25 -33 -43 9 -41 hhcurveto
          -128 -101 -103 -178 -116 62 -79 83 63 56 33 30 52 hvcurveto
          9 47 rmoveto
          -18 -23 -56 -29 -46 hhcurveto
          -50 -64 61 90 90 32 138 118 42 44 -21 -47 3 hvcurveto
          endchar
        </CharString>
        <CharString name="gamma">
          44 525 465 rmoveto
          -37 -95 -82 -160 -65 -120 -8 2 rcurveline
          146 -24 231 -149 -77 -42 -34 -77 -50 vhcurveto
          16 -12 23 27 rlineto
          23 20 40 7 27 hhcurveto
          26 25 -13 -18 19 hvcurveto
          73 -72 31 -261 -39 vvcurveto
          -53 -165 17 -14 18 -12 21 -7 rlinecurve
          34 26 rlineto
          5 52 3 55 53 vvcurveto
          23 vlineto
          17 43 75 134 90 124 80 131 rlinecurve
          -60 27 rlineto
          endchar
        </CharString>
        <CharString name="germandbls">
          -92 3 428 rmoveto
          -4 -22 5 -7 rlineto
          68 -81 callsubr
          153 hlineto
          -76 -133 rlineto
          -24 vlineto
          29 -23 48 -43 28 -49 21 -38 4 -39 -15 -44 -23 -67 -77 -58 -85 -17 5 -24 rcurveline
          162 103 100 128 1 hvcurveto
          94 -70 56 -51 41 vhcurveto
          83 146 7 22 -5 7 rlineto
          -242 -86 callsubr
          102 17 87 43 47 7 -43 -21 4 vhcurveto
          12 -4 58 54 rlineto
          27 -13 -26 27 -54 hhcurveto
          -25 callsubr
          -61 hlineto
          endchar
        </CharString>
        <CharString name="grave">
          -25 70 665 -105 callsubr
          endchar
        </CharString>
        <CharString name="gravecomb">
          -545 -130 665 -105 callsubr
          endchar
        </CharString>
        <CharString name="greater">
          166 574 254 rmoveto
          -9 vlineto
          -518 -243 -4 -9 8 -24 10 -5 600 280 rlineto
          12 vlineto
          -602 275 -10 -3 -10 -24 2 -10 rlineto
          endchar
        </CharString>
        <CharString name="guillemotleft">
          -129 374 36 -33 callsubr
          58 -202 -33 callsubr
          endchar
        </CharString>
        <CharString name="guillemotright">
          -129 42 36 -37 callsubr
          166 -28 -37 callsubr
          endchar
        </CharString>
        <CharString name="guilsinglleft">
          -281 12 238 rmoveto
          210 -202 -18 callsubr
          rlineto
          endchar
        </CharString>
        <CharString name="guilsinglright">
          -281 252 238 rmoveto
          -192 188 -31 -46 149 -146 -150 -170 14 -28 rlineto
          endchar
        </CharString>
        <CharString name="h">
          47 499 62 rmoveto
          -53 9 83 41 hvcurveto
          74 vlineto
          80 6 70 -30 28 vhcurveto
          18 -19 -31 10 -15 hhcurveto
          -73 -69 -40 -36 -59 hvcurveto
          -8 8 rlineto
          92 0 99 4 85 vhcurveto
          -6 7 -158 -17 -5 -4 rlineto
          -18 vlineto
          27 -6 41 -8 9 -12 rrcurveto
          26 -36 -6 -79 -101 vvcurveto
          -1 -132 -6 -132 -7 -132 6 -10 rcurveline
          72 22 rlineto
          108 2 110 110 vvcurveto
          28 39 48 32 55 hhcurveto
          74 12 -62 -76 hvcurveto
          -36 -4 -87 -54 vvcurveto
          -49 19 -50 47 60 53 49 47 44 vhcurveto
          11 vlineto
          -13 10 rlineto
          -18 -19 -32 -27 -39 hhcurveto
          endchar
        </CharString>
        <CharString name="hyphen">
          -192 297 276 -17 callsubr
        </CharString>
        <CharString name="i">
          -222 206 625 -89 callsubr
          -14 -233 -98 callsubr
        </CharString>
        <CharString name="iacute">
          -287 279 707 -104 callsubr
          75 -161 -98 callsubr
        </CharString>
        <CharString name="icircumflex">
          -287 -51 562 -106 callsubr
          74 -351 -98 callsubr
        </CharString>
        <CharString name="idieresis">
          -287 272 607 -107 callsubr
          122 -215 -98 callsubr
        </CharString>
        <CharString name="igrave">
          -287 -70 708 -105 callsubr
          215 -352 -98 callsubr
        </CharString>
        <CharString name="iota">
          -267 266 108 rmoveto
          -20 -20 -27 -24 -28 hhcurveto
          -61 2 86 45 90 2 90 15 89 hvcurveto
          -11 10 -81 -25 rlineto
          -347 vlineto
          -50 29 -61 52 57 55 56 48 38 vhcurveto
          -13 14 rlineto
          endchar
        </CharString>
        <CharString name="j">
          -254 159 683 rmoveto
          -32 -27 -26 -32 -32 23 -28 33 35 26 30 34 32 -28 22 -30 hvcurveto
          -141 -308 -64 callsubr
        </CharString>
        <CharString name="k">
          -29 154 266 rmoveto
          413 vlineto
          3 7 -160 -23 -5 -4 rlineto
          -21 vlineto
          53 -6 24 -7 9 -31 rrcurveto
          7 -27 2 -48 -51 vvcurveto
          -158 -8 -153 -4 -157 vhcurveto
          6 -7 71 20 rlineto
          221 vlineto
          12 7 rlineto
          71 -79 89 -120 0 vvcurveto
          -38 33 16 -11 30 hhcurveto
          53 50 67 32 24 hvcurveto
          -19 20 rlineto
          -23 -22 -23 -16 -33 hhcurveto
          -40 -97 110 75 -59 hvcurveto
          -3 5 -5 5 6 vvcurveto
          5 11 9 7 6 vhcurveto
          67 56 71 51 75 44 rrcurveto
          11 vlineto
          -46 29 -24 -14 -11 -11 -78 -71 rlinecurve
          -134 -123 rlineto
          endchar
        </CharString>
        <CharString name="kappa">
          -86 399 472 rmoveto
          -94 -60 -88 -68 -76 -82 -6 2 rcurveline
          1 31 4 106 2 58 -5 6 rcurveline
          -79 -26 rlineto
          3 -83 1 -82 -83 vvcurveto
          -63 0 -64 -1 -63 vhcurveto
          16 -5 63 26 rlineto
          -3 63 -3 66 61 vvcurveto
          9 4 76 -70 90 -76 85 -72 rlinecurve
          67 36 1 14 -89 64 -86 68 -80 75 rlinecurve
          -4 11 rlineto
          2 0 2 1 2 vhcurveto
          43 51 113 65 89 38 1 15 rcurveline
          endchar
        </CharString>
        <CharString name="l">
          -244 289 112 rmoveto
          -22 -25 -28 -25 -33 hhcurveto
          -60 4 12 91 99 vvcurveto
          140 10 140 4 140 vhcurveto
          -6 7 -165 -20 -6 -5 rlineto
          -23 vlineto
          32 -2 48 3 7 -31 rrcurveto
          5 -24 0 -43 -33 vvcurveto
          -7 -378 rlineto
          -115 31 -26 51 66 52 58 53 34 vhcurveto
          -11 12 rlineto
          endchar
        </CharString>
        <CharString name="lambda">
          -64 408 -11 rmoveto
          73 26 rlineto
          0 2 4 4 2 -1 1 1 vvcurveto
          -101 220 -35 97 -18 52 -24 65 -30 107 -22 44 rrcurveto
          62 -32 -26 16 -32 hhcurveto
          -52 -50 -15 -16 -44 hvcurveto
          8 -25 rlineto
          5 23 32 7 15 hhcurveto
          81 45 -170 -34 4 hvcurveto
          -231 -435 18 -13 59 17 26 78 9 19 128 271 rlinecurve
          1 3 2 3 4 1 rrcurveto
          4 3 -3 -3 1 hvcurveto
          146 -384 rlineto
          endchar
        </CharString>
        <CharString name="less">
          165 653 528 rmoveto
          -11 3 -601 -275 rlineto
          -12 vlineto
          600 -280 10 5 11 23 -5 10 -519 241 rlineto
          12 vlineto
          522 241 2 9 rlineto
          endchar
        </CharString>
        <CharString name="logicalnot">
          232 57 409 rmoveto
          -40 563 -163 40 203 vlineto
          endchar
        </CharString>
        <CharString name="lscript">
          -165 296 84 rmoveto
          -10 -8 -28 -23 -19 hhcurveto
          -68 -11 108 91 -7 hvcurveto
          80 101 93 133 124 vvcurveto
          59 -18 37 -53 -98 -40 -114 -82 -17 vhcurveto
          -14 -64 -4 -67 -66 vvcurveto
          -28 0 -28 2 -27 vhcurveto
          -66 -74 15 -18 46 44 9 -3 rlineto
          -70 4 4 -116 106 hhcurveto
          55 41 50 28 17 hvcurveto
          28 40 -17 13 rlineto
          -176 182 rmoveto
          89 14 107 10 55 vhcurveto
          40 7 22 77 36 hhcurveto
          22 16 -10 -56 -104 -41 -95 -78 -105 hvcurveto
          endchar
        </CharString>
        <CharString name="m">
          328 393 -10 rmoveto
          74 28 rlineto
          -4 69 -2 71 70 vvcurveto
          46 1 46 1 46 vhcurveto
          16 28 35 18 49 hhcurveto
          65 20 -49 -82 hvcurveto
          -74 -5 -120 -16 vvcurveto
          -38 21 -39 47 60 55 48 41 45 vhcurveto
          -7 21 rlineto
          -14 hlineto
          -18 -24 -32 -22 -21 hhcurveto
          -44 -7 38 27 hvcurveto
          131 vlineto
          100 6 58 -26 27 vhcurveto
          21 -21 -29 6 -29 hhcurveto
          -59 -63 -35 -20 -38 hvcurveto
          -16 2 rlineto
          32 -19 -34 20 -37 hhcurveto
          -60 -60 -40 -28 -52 -78 callsubr
          -12 37 -50 vhcurveto
          -49 -2 -48 -35 -40 -32 12 -19 rcurveline
          13 23 36 16 16 hhcurveto
          41 -1 -64 -75 -91 -6 -92 -1 -92 hvcurveto
          14 -8 67 24 rlineto
          -2 41 0 42 42 vvcurveto
          73 2 72 3 72 vhcurveto
          6 9 61 38 47 hhcurveto
          66 16 -48 -83 hvcurveto
          -114 -10 -127 -32 vvcurveto
          endchar
        </CharString>
        <CharString name="macron">
          -25 381 -21 callsubr
        </CharString>
        <CharString name="macroncomb">
          -545 121 -21 callsubr
        </CharString>
        <CharString name="minus">
          347 778 276 -16 callsubr
          endchar
        </CharString>
        <CharString name="mu">
          137 415 434 rmoveto
          2 -57 2 -57 -58 vvcurveto
          -21 -2 -73 -1 -48 vhcurveto
          -39 -36 -56 -24 -36 hhcurveto
          -85 -8 73 56 hvcurveto
          269 vlineto
          -9 7 -83 -26 rlineto
          4 -24 13 -85 -55 vvcurveto
          -189 vlineto
          -92 -2 -92 -2 -92 vhcurveto
          12 -6 53 20 rlineto
          -13 63 -6 75 66 vvcurveto
          6 2 rlineto
          -20 17 13 -10 32 hhcurveto
          49 76 43 33 58 hvcurveto
          8 -5 rlineto
          -41 6 11 -28 52 hhcurveto
          55 56 46 38 41 hvcurveto
          -8 14 -11 2 rlineto
          -15 -24 -30 -18 -23 hhcurveto
          -47 -5 65 34 hvcurveto
          167 vlineto
          31 3 51 3 41 vhcurveto
          -8 11 rlineto
          endchar
        </CharString>
        <CharString name="multiply">
          58 81 502 rmoveto
          -24 -32 215 -215 -214 -215 23 -33 220 219 219 -219 23 33 -214 215 218 217 -25 32 -221 -221 rlineto
          endchar
        </CharString>
        <CharString name="n">
          86 195 18 rmoveto
          -2 40 -1 30 28 vvcurveto
          73 3 88 3 72 vhcurveto
          29 36 47 32 46 hhcurveto
          71 19 -61 -100 hvcurveto
          -5 -171 rlineto
          -48 17 -40 55 48 63 44 45 46 vhcurveto
          -9 21 rlineto
          -13 hlineto
          -19 -25 -32 -21 -23 hhcurveto
          -55 7 45 151 64 0 96 -20 24 hvcurveto
          22 -19 -29 7 -29 hhcurveto
          -64 -69 -38 -34 -56 -78 callsubr
          -6 -16 31 -50 hhcurveto
          -37 -57 -41 -30 -41 hvcurveto
          17 -22 rlineto
          19 29 25 16 21 hhcurveto
          33 4 -48 -67 -81 -7 -165 -2 -51 hvcurveto
          15 -7 rlineto
          endchar
        </CharString>
        <CharString name="nine">
          -45 214 11 rmoveto
          13 83 69 97 54 79 rrcurveto
          52 77 60 96 85 vvcurveto
          107 -71 67 -145 vhcurveto
          -50 -22 -88 -46 -29 -36 rrcurveto
          -29 -36 -10 -45 -52 vvcurveto
          -96 85 -70 69 52 49 17 26 49 vhcurveto
          5 -6 rlineto
          -32 -55 -85 -114 0 vvcurveto
          -45 -58 -48 -64 -20 -46 10 -8 rcurveline
          222 393 rmoveto
          -24 -24 -35 -8 -33 hhcurveto
          -84 -46 86 77 52 33 77 57 108 55 -78 -84 -35 -6 -38 -25 -25 hvcurveto
          endchar
        </CharString>
        <CharString name="nine.dnom">
          164 7 -72 callsubr
        </CharString>
        <CharString name="nine.numr">
          164 282 -72 callsubr
        </CharString>
        <CharString name="ntilde">
          86 315 620 -103 callsubr
          -167 -581 rmoveto
          -2 40 -1 30 28 vvcurveto
          73 3 88 3 72 vhcurveto
          29 36 47 32 46 hhcurveto
          71 19 -61 -100 hvcurveto
          -5 -171 rlineto
          -48 17 -40 55 48 63 44 45 46 vhcurveto
          -9 21 rlineto
          -13 hlineto
          -19 -25 -32 -21 -23 hhcurveto
          -55 7 45 151 64 0 96 -20 24 hvcurveto
          22 -19 -29 7 -29 hhcurveto
          -64 -69 -38 -34 -56 -78 callsubr
          -6 -16 31 -50 hhcurveto
          -37 -57 -41 -30 -41 hvcurveto
          17 -22 rlineto
          19 29 25 16 21 hhcurveto
          33 4 -48 -67 -81 -7 -165 -2 -51 hvcurveto
          15 -7 rlineto
          endchar
        </CharString>
        <CharString name="nu">
          -16 531 452 rmoveto
          -57 16 -23 -10 -33 -129 -36 -110 -56 -118 rlinecurve
          -5 hlineto
          -26 119 -37 164 -55 55 rrcurveto
          21 -21 -33 11 -30 hhcurveto
          -53 -43 -22 -39 -35 hvcurveto
          20 -26 rlineto
          10 15 21 8 31 hhcurveto
          73 43 -98 -66 23 hvcurveto
          27 -77 16 -81 12 -81 7 -7 rcurveline
          56 32 20 50 22 48 24 48 rlinecurve
          136 274 rlineto
          endchar
        </CharString>
        <CharString name="numbersign">
          170 10 228 rmoveto
          6 -10 rlineto
          165 -19 callsubr
          207 -19 callsubr
          164 hlineto
          12 8 -6 33 rlineto
          -158 hlineto
          58 209 rlineto
          154 hlineto
          12 8 -6 33 rlineto
          -149 -24 callsubr
          -207 -24 callsubr
          -183 hlineto
          -8 -10 4 -21 6 -10 rlineto
          170 hlineto
          -59 -209 rlineto
          -178 hlineto
          -8 -10 rlineto
          229 10 rmoveto
          58 209 rlineto
          207 hlineto
          -59 -209 rlineto
          endchar
        </CharString>
        <CharString name="o">
          -8 431 59 -99 callsubr
        </CharString>
        <CharString name="oacute">
          -44 366 694 -104 callsubr
          227 -481 -99 callsubr
        </CharString>
        <CharString name="ocircumflex">
          -44 88 555 -106 callsubr
          174 -677 -99 callsubr
        </CharString>
        <CharString name="odieresis">
          -8 429 595 -107 callsubr
          204 -536 -99 callsubr
        </CharString>
        <CharString name="oe">
          270 770 -20 callsubr
          -76 -72 -33 -57 -49 vhcurveto
          -2 -2 rlineto
          47 -30 -51 32 -78 hhcurveto
          -79 callsubr
          hvcurveto
          -34 callsubr
          1 1 1 2 2 1 rrcurveto
          -44 24 42 -31 66 -63 callsubr
          -388 -80 rmoveto
          74 18 54 36 54 hhcurveto
          -42 callsubr
          endchar
        </CharString>
        <CharString name="ograve">
          -44 121 695 -105 callsubr
          263 -672 -99 callsubr
        </CharString>
        <CharString name="omega">
          226 609 409 rmoveto
          48 -41 20 -63 -61 vvcurveto
          -87 -45 -96 -94 -94 -14 118 85 65 0 71 9 59 vhcurveto
          -6 7 -75 -28 rlineto
          -189 vlineto
          -53 -4 -71 -33 -33 vhcurveto
          -24 -24 -31 -18 -34 hhcurveto
          -90 -30 102 80 91 30 69 78 60 hvcurveto
          -16 14 rlineto
          -135 -47 -39 -126 -117 vvcurveto
          -91 54 -98 104 70 57 54 46 45 vhcurveto
          12 hlineto
          -77 36 28 -14 57 hhcurveto
          146 105 168 142 64 -25 62 -51 40 hvcurveto
          -14 -3 -42 -48 rlineto
          endchar
        </CharString>
        <CharString name="one">
          -45 92 639 rmoveto
          -27 83 vlineto
          62 -15 -82 -111 -140 -3 -140 -5 -139 hvcurveto
          12 -5 84 27 rlineto
          -3 76 0 198 136 vvcurveto
          89 2 90 5 89 vhcurveto
          -6 12 rlineto
          endchar
        </CharString>
        <CharString name="one.dnom">
          227 427 -54 callsubr
        </CharString>
        <CharString name="one.numr">
          227 702 -54 callsubr
        </CharString>
        <CharString name="onehalf">
          245 589 -90 callsubr
          -587 -51 callsubr
          566 -651 rmoveto
          -222 hlineto
          -4 -6 0 4 1 1 0 1 1 hvcurveto
          86 83 115 105 85 vvcurveto
          54 -47 39 -62 -61 -52 -33 -35 -39 vhcurveto
          14 -11 rlineto
          19 28 31 19 40 hhcurveto
          59 23 -45 -34 -71 -57 -61 -56 -55 hvcurveto
          -38 -37 -41 -35 -41 -35 rrcurveto
          -10 315 vlineto
          17 47 rlineto
          endchar
        </CharString>
        <CharString name="onequarter">
          245 593 -90 callsubr
          -591 -51 callsubr
          435 -304 -74 callsubr
        </CharString>
        <CharString name="onesuperior">
          -367 -28 685 rmoveto
          -17 61 vlineto
          46 -12 -53 -73 -91 -3 -91 -3 -90 hvcurveto
          9 -3 62 17 rlineto
          -2 49 0 130 88 vvcurveto
          58 1 58 4 58 vhcurveto
          -5 8 rlineto
          endchar
        </CharString>
        <CharString name="ordfeminine">
          -179 269 550 rmoveto
          15 -23 -33 8 -23 hhcurveto
          -123 -52 -90 -92 -59 28 -70 81 43 41 20 21 36 hvcurveto
          11 -2 rlineto
          -22 4 10 -17 27 hhcurveto
          23 41 22 16 29 hvcurveto
          -5 16 rlineto
          -5 -16 -22 -7 -10 hhcurveto
          -25 -2 26 16 hvcurveto
          25 -2 26 25 vvcurveto
          48 2 49 3 48 vhcurveto
          -4 3 rlineto
          -55 -236 rmoveto
          -14 -21 -28 -15 -29 hhcurveto
          -27 -29 6 21 -16 hvcurveto
          -17 23 -5 28 1 27 1 66 21 35 17 14 rrcurveto
          16 20 24 9 27 hhcurveto
          18 18 -9 -12 13 hvcurveto
          12 -11 0 -17 -17 vvcurveto
          endchar
        </CharString>
        <CharString name="ordmasculine">
          -189 159 261 rmoveto
          51 53 13 34 35 hvcurveto
          32 32 10 43 42 vvcurveto
          43 -13 48 -37 30 vhcurveto
          21 -26 -35 5 -34 hhcurveto
          -51 -53 -14 -34 -35 hvcurveto
          -35 -34 -5 -48 -45 vvcurveto
          -71 6 37 -65 100 hhcurveto
          -74 214 rmoveto
          47 13 41 25 39 hhcurveto
          83 14 -81 -53 -54 -17 -71 -79 -81 -19 82 55 17 2 17 4 16 hvcurveto
          endchar
        </CharString>
        <CharString name="oslash">
          -25 431 59 rmoveto
          44 49 14 66 65 vvcurveto
          88 -31 88 -84 35 vhcurveto
          28 65 -6 11 -22 5 -10 -2 -29 -68 rlineto
          3 -14 -14 1 -16 hhcurveto
          -79 callsubr
          hvcurveto
          -48 -52 -7 -74 -69 vvcurveto
          5 -74 25 -73 62 -38 -34 -79 rcurveline
          2 -14 32 -8 37 85 rlineto
          -6 19 22 -3 24 hhcurveto
          70 72 20 53 47 hvcurveto
          -163 367 rmoveto
          18 16 -3 -6 14 hvcurveto
          -145 -334 rlineto
          -28 44 -9 63 49 vvcurveto
          26 2 26 6 25 vhcurveto
          74 18 54 36 54 hhcurveto
          132 -206 rmoveto
          -83 -23 -110 -108 -28 -23 8 14 -18 vhcurveto
          150 345 rlineto
          41 -42 9 -76 -56 vvcurveto
          endchar
        </CharString>
        <CharString name="otilde">
          -8 267 620 -103 callsubr
          117 -540 -99 callsubr
        </CharString>
        <CharString name="p">
          17 203 -206 rmoveto
          -6 52 -3 97 -1 46 10 8 rcurveline
          -5 19 20 -3 20 hhcurveto
          155 105 162 147 75 -35 92 -102 -69 -61 -31 -43 -54 hvcurveto
          -8 4 rlineto
          44 -4 -16 31 -45 -50 callsubr
          303 rmoveto
          1 -2 103 82 11 3 76 -43 callsubr
        </CharString>
        <CharString name="paragraph">
          -92 294 13 rmoveto
          62 -19 7 7 rlineto
          -2 140 -5 141 141 vvcurveto
          59 2 59 3 59 vhcurveto
          3 40 33 9 38 5 rrcurveto
          18 vlineto
          -7 7 -150 3 -148 3 -95 -95 -6 -106 rlinecurve
          -4 -84 52 -97 128 -10 rrcurveto
          29 -2 67 2 -19 vvcurveto
          -25 -6 -135 -1 -101 vhcurveto
          endchar
        </CharString>
        <CharString name="parenleft">
          -288 246 -163 rmoveto
          -129 25 -7 243 169 vvcurveto
          151 9 254 127 32 vhcurveto
          27 vlineto
          -104 -18 -45 -114 -19 -96 rrcurveto
          -15 -75 -5 -78 -77 vvcurveto
          -81 4 -81 14 -80 vhcurveto
          17 -95 48 -121 105 -9 rrcurveto
          endchar
        </CharString>
        <CharString name="parenright">
          -286 11 709 rmoveto
          81 -29 23 -94 15 -75 rrcurveto
          15 -77 4 -80 -78 vvcurveto
          -114 2 -122 -36 -107 vhcurveto
          -20 -60 -38 -26 -46 -12 rrcurveto
          -24 vlineto
          179 23 11 267 171 vvcurveto
          167 -21 262 -169 35 vhcurveto
          endchar
        </CharString>
        <CharString name="partialdiff">
          22 100 548 rmoveto
          48 21 34 46 64 hhcurveto
          93 52 -94 -100 25 hvcurveto
          -4 -4 rlineto
          10 -36 -23 3 -21 hhcurveto
          -153 -74 -125 -129 -47 13 -71 34 -41 hvcurveto
          -42 35 53 -9 58 hhcurveto
          42 41 18 28 33 hvcurveto
          82 69 15 113 101 vvcurveto
          158 -53 219 -175 -90 -56 -62 -82 -28 vhcurveto
          300 -430 rmoveto
          -45 -15 -30 -47 -53 hhcurveto
          -99 -23 124 48 91 37 129 117 27 27 -9 -11 25 hvcurveto
          8 -39 4 -40 -40 vvcurveto
          -54 -7 -56 -18 -51 vhcurveto
          endchar
        </CharString>
        <CharString name="percent">
          282 228 795 -40 callsubr
          475 -18 rmoveto
          -11 hlineto
          -616 -746 -1 -14 28 -18 621 754 -1 13 rlineto
          -545 -23 rmoveto
          85 -6 57 -67 -72 vvcurveto
          -50 -14 -61 -72 -74 -41 74 63 45 14 48 45 26 vhcurveto
          446 -401 -40 callsubr
          -50 -52 rmoveto
          85 -6 57 -67 -72 vvcurveto
          -50 -14 -61 -72 -74 -41 74 63 45 14 48 45 26 vhcurveto
          endchar
        </CharString>
        <CharString name="period">
          -273 69 52 -35 callsubr
        </CharString>
        <CharString name="periodcentered">
          -273 69 257 -35 callsubr
        </CharString>
        <CharString name="phi">
          99 365 -156 rmoveto
          -7 49 -4 50 49 vvcurveto
          9 10 70 2 67 21 50 50 rlinecurve
          48 48 21 69 67 vvcurveto
          124 -70 90 -185 vhcurveto
          -8 10 rlineto
          68 3 68 5 67 vhcurveto
          -7 8 -82 -42 rlineto
          4 -56 2 -57 -57 vvcurveto
          -9 -9 rlineto
          -42 -83 -21 -47 -47 hvcurveto
          -50 -51 -24 -70 -72 vvcurveto
          -115 50 -96 197 -5 vhcurveto
          8 -9 rlineto
          -57 -4 -55 -1 -57 vhcurveto
          17 -10 rlineto
          61 234 rmoveto
          392 vlineto
          9 9 47 -1 46 -7 34 -34 rlinecurve
          36 -37 11 -52 -51 vvcurveto
          -105 -62 -116 -113 -7 vhcurveto
          -81 400 rmoveto
          -395 vlineto
          -8 -9 rlineto
          -110 -54 114 99 56 12 59 41 41 hvcurveto
          30 30 49 13 31 hhcurveto
          endchar
        </CharString>
        <CharString name="phi1">
          97 265 -197 rmoveto
          69 21 rlineto
          -5 54 -3 53 54 vvcurveto
          7 8 81 11 77 28 58 58 rlinecurve
          49 49 19 69 69 vvcurveto
          96 -50 91 -111 -42 -51 -11 -37 -43 vhcurveto
          -58 -50 -8 -65 -61 vvcurveto
          -205 vlineto
          -7 -7 rlineto
          -19 -27 9 37 -37 hvcurveto
          -48 47 -13 79 67 vvcurveto
          81 31 58 84 39 vhcurveto
          -12 22 rlineto
          -99 -29 -84 -83 -106 vvcurveto
          -69 18 -60 45 -52 vhcurveto
          52 -60 50 -10 59 -6 7 -7 rcurveline
          -2 -168 rlineto
          74 216 rmoveto
          232 vlineto
          91 29 69 82 82 15 -120 -28 -66 -15 -74 -45 -46 vhcurveto
          -38 -39 -49 -24 -54 -2 rrcurveto
          endchar
        </CharString>
        <CharString name="pi">
          51 171 460 rmoveto
          -58 -61 -1 -58 -18 hvcurveto
          -28 -113 21 -9 18 46 rlineto
          59 23 26 10 49 hhcurveto
          74 hlineto
          -25 -112 -54 -143 -67 -116 1 -13 rcurveline
          55 -15 11 10 44 128 45 131 27 130 rlinecurve
          143 hlineto
          6 -6 rlineto
          -10 -80 -6 -80 -81 vvcurveto
          -45 2 -63 29 -27 vhcurveto
          -12 12 22 0 19 hhcurveto
          41 41 32 28 31 hvcurveto
          -10 17 -6 2 rlineto
          -10 -15 -16 -6 -18 hhcurveto
          -65 2 129 90 34 4 36 2 35 hvcurveto
          7 7 38 1 37 11 34 16 rlinecurve
          35 59 -8 7 rlineto
          -18 -34 -38 -10 -39 hhcurveto
          endchar
        </CharString>
        <CharString name="pi1">
          230 356 302 rmoveto
          2 -22 3 -22 -22 vvcurveto
          -81 -26 -108 -104 -83 -29 104 73 53 17 52 38 37 vhcurveto
          -10 21 rlineto
          -74 -51 -50 -58 -84 vvcurveto
          -88 38 -114 105 73 63 39 53 49 vhcurveto
          8 -1 rlineto
          -58 20 49 -37 58 hhcurveto
          134 112 176 142 161 -141 74 -207 -155 -63 -26 -26 -42 hvcurveto
          -45 -28 -30 -37 -33 -39 15 -16 rcurveline
          68 68 46 40 200 hhcurveto
          87 110 -9 -61 59 hvcurveto
          51 -54 13 -46 -58 vvcurveto
          -84 -38 -109 -97 -57 -45 45 63 vhcurveto
          154 vlineto
          -8 12 rlineto
          endchar
        </CharString>
        <CharString name="plus">
          202 392 -26 callsubr
          -310 hlineto
          40 7 rlineto
          303 308 vlineto
          5 40 rlineto
          -313 hlineto
          endchar
        </CharString>
        <CharString name="plusminus">
          218 399 -26 callsubr
          -271 -303 -97 callsubr
          658 hlineto
          6 40 rlineto
          -314 271 308 hlineto
          5 40 rlineto
          -313 hlineto
          endchar
        </CharString>
        <CharString name="psi">
          159 358 -189 rmoveto
          76 35 rlineto
          -7 49 -2 51 50 vvcurveto
          7 8 rlineto
          139 29 108 114 139 vvcurveto
          66 -25 64 -41 51 vhcurveto
          -21 3 -44 -48 -3 -13 rlineto
          36 -39 27 -49 -54 vvcurveto
          -56 -11 -53 -36 -44 vhcurveto
          -14 -18 -53 -54 -63 -5 -6 7 rcurveline
          352 vlineto
          98 0 164 2 30 vhcurveto
          -7 7 -80 -33 rlineto
          6 -101 6 -108 -96 vvcurveto
          -315 vlineto
          -7 -6 rlineto
          -44 -51 23 21 -22 hvcurveto
          -29 28 -12 41 80 vvcurveto
          129 vlineto
          116 -35 -2 -29 -47 -49 -35 -31 -39 vhcurveto
          17 -21 rlineto
          13 20 25 17 19 hhcurveto
          38 6 -60 -30 hvcurveto
          -153 vlineto
          -106 42 -64 190 vhcurveto
          7 -8 rlineto
          -176 vlineto
          endchar
        </CharString>
        <CharString name="q">
          -37 451 -214 rmoveto
          -8 89 -4 116 122 vvcurveto
          132 4 139 10 116 vhcurveto
          -21 4 -44 -59 -9 -2 rlineto
          14 -28 -40 14 -31 hhcurveto
          -169 -71 -146 -139 -84 38 -109 105 63 58 28 38 51 hvcurveto
          7 -5 -3 -96 -2 -144 -3 -41 rlinecurve
          16 -16 rlineto
          -8 348 rmoveto
          -29 -33 -44 -21 -39 hhcurveto
          -82 -32 75 83 112 34 109 113 26 23 -14 -18 18 hvcurveto
          16 -16 0 -30 -25 vvcurveto
          endchar
        </CharString>
        <CharString name="question">
          -192 162 222 rmoveto
          -16 12 -11 20 20 vvcurveto
          62 122 61 47 79 vhcurveto
          17 29 13 27 33 vvcurveto
          77 -53 51 -76 -79 -105 -53 -83 -26 10 -27 18 -16 vhcurveto
          67 40 rlineto
          -19 15 -13 22 24 vvcurveto
          45 42 27 39 50 48 -62 -54 -113 -99 -44 -64 -83 vhcurveto
          -13 -16 -13 -19 -20 vvcurveto
          -30 19 -27 23 -14 vhcurveto
          46 32 rlineto
          -80 -165 rmoveto
          -31 25 -26 31 32 26 26 31 31 -26 26 -32 -31 -25 -26 -31 vhcurveto
          endchar
        </CharString>
        <CharString name="questiondown">
          -192 271 442 rmoveto
          31 -25 26 -31 -32 -26 -26 -31 -31 26 -26 32 31 25 26 31 vhcurveto
          -80 -176 rmoveto
          16 -12 11 -20 -20 vvcurveto
          -62 -122 -61 -47 -79 vhcurveto
          -17 -29 -13 -27 -33 vvcurveto
          -77 53 -51 76 79 105 53 83 26 -10 27 -18 16 vhcurveto
          -67 -40 rlineto
          19 -15 13 -22 -24 vvcurveto
          -45 -42 -27 -39 -50 -48 62 54 113 99 44 64 83 vhcurveto
          13 16 13 19 20 vvcurveto
          30 -19 27 -23 14 vhcurveto
          -46 -32 rlineto
          endchar
        </CharString>
        <CharString name="quotedbl">
          -212 118 432 rmoveto
          21 191 rlineto
          52 vlineto
          14 -19 6 -14 -25 -9 -17 -21 -24 2 -25 3 -24 vhcurveto
          20 -152 rlineto
          142 hmoveto
          19 194 rlineto
          1 15 0 16 16 vvcurveto
          13 -18 6 -11 -18 -21 -5 -19 -5 3 -24 2 -14 vhcurveto
          22 -193 rlineto
          endchar
        </CharString>
        <CharString name="quoteleft">
          -345 115 532 rmoveto
          -9 14 -5 15 16 vvcurveto
          35 28 47 21 36 vhcurveto
          -14 14 rlineto
          -39 -49 -56 -68 -51 vvcurveto
          -48 44 -87 30 15 33 24 18 8 -11 19 -5 8 vhcurveto
          endchar
        </CharString>
        <CharString name="quoteright">
          -348 66 395 rmoveto
          35 53 54 54 62 vvcurveto
          42 -43 89 -28 -16 -32 -26 -15 -7 8 -16 6 -10 vhcurveto
          35 -57 rlineto
          7 -13 6 -12 -14 vvcurveto
          -40 -24 -38 -24 -41 vhcurveto
          endchar
        </CharString>
        <CharString name="quotesingle">
          -335 110 436 rmoveto
          26 186 rlineto
          2 13 2 16 11 vvcurveto
          19 -9 14 -21 -19 -17 -10 -19 -13 1 -12 1 -12 vhcurveto
          18 -193 rlineto
          endchar
        </CharString>
        <CharString name="r">
          -129 406 388 rmoveto
          52 -5 -25 27 -49 hhcurveto
          -36 -45 -42 -28 -29 hvcurveto
          -10 4 rlineto
          42 -6 -21 30 -45 hhcurveto
          -41 -55 -44 -31 -39 hvcurveto
          12 -17 rlineto
          14 25 30 17 23 hhcurveto
          46 -3 -91 -78 -80 -6 -87 -6 -70 hvcurveto
          15 -9 70 21 rlineto
          -2 51 -1 50 51 vvcurveto
          54 -7 83 14 33 vhcurveto
          27 11 25 35 41 hhcurveto
          33 15 -30 -28 5 hvcurveto
          12 -5 rlineto
          endchar
        </CharString>
        <CharString name="registered">
          87 -68 callsubr
          257 -1 rmoveto
          72 6 57 28 70 vvcurveto
          48 -52 22 -70 vhcurveto
          -162 hlineto
          -4 -4 -1 -8 rlineto
          5 41 -6 -16 hvcurveto
          -28 2 -50 -8 vvcurveto
          -72 0 -74 -5 -72 vhcurveto
          6 -5 50 15 rlineto
          -3 48 0 48 48 vvcurveto
          4 4 -2 -2 4 hvcurveto
          18 -14 75 -82 56 -60 60 13 rcurveline
          5 vlineto
          -158 148 rlineto
          -64 23 rmoveto
          2 2 88 2 32 vhcurveto
          10 2 3 5 vhcurveto
          24 hlineto
          44 57 -8 -50 -60 -64 -24 -66 -4 -2 4 3 hvcurveto
          endchar
        </CharString>
        <CharString name="rho">
          -61 133 -169 rmoveto
          2 4 4 8 1 vvcurveto
          -20 78 -4 72 -3 80 7 1 rcurveline
          -50 33 45 -28 54 hhcurveto
          120 84 136 118 58 -9 74 -40 40 hvcurveto
          36 -37 -47 18 -51 hhcurveto
          -54 -57 -16 -36 -41 hvcurveto
          -76 -67 3 -105 -120 vvcurveto
          -105 5 -105 6 -104 vhcurveto
          20 -8 rlineto
          40 420 rmoveto
          90 28 120 111 91 20 -117 -90 -87 -41 -100 -104 -84 -21 107 77 vhcurveto
          endchar
        </CharString>
        <CharString name="ring">
          -45 153 -83 callsubr
        </CharString>
        <CharString name="ringcomb">
          -545 -97 -83 callsubr
        </CharString>
        <CharString name="s">
          -166 342 383 rmoveto
          61 -3 -58 22 -52 hhcurveto
          -83 -90 -53 -90 -66 62 -36 63 -26 hvcurveto
          47 -20 52 -27 -51 vvcurveto
          -41 -43 -35 -42 -63 -47 53 62 -4 vhcurveto
          -14 1 -49 -71 rlineto
          -63 33 54 -20 60 hhcurveto
          88 100 53 102 47 -38 36 -77 33 hvcurveto
          -73 31 -37 25 40 vvcurveto
          46 35 35 47 45 17 -34 -44 3 vhcurveto
          12 -7 rlineto
          endchar
        </CharString>
        <CharString name="section">
          -80 35 23 rmoveto
          -99 9 91 -31 81 hhcurveto
          99 81 83 99 26 -5 27 -13 21 hvcurveto
          33 37 19 48 51 vvcurveto
          86 -87 24 -63 36 vhcurveto
          -75 43 -60 13 74 vvcurveto
          58 32 52 51 44 24 -36 -60 vhcurveto
          15 -11 59 21 rlineto
          2 12 4 18 7 vvcurveto
          61 -69 18 -49 -102 -68 -79 -97 -21 4 -20 6 -20 vhcurveto
          -26 -38 -22 -42 -46 vvcurveto
          -86 58 -38 86 -38 vhcurveto
          82 -40 60 -26 -62 vvcurveto
          -69 -43 -60 -62 -71 -45 58 68 -2 vhcurveto
          -8 5 rlineto
          259 116 rmoveto
          -64 66 -211 33 108 vvcurveto
          24 10 27 14 18 vhcurveto
          41 -56 144 -28 51 -53 rrcurveto
          20 -20 16 -24 -29 vvcurveto
          -22 -5 -22 -13 -18 vhcurveto
          endchar
        </CharString>
        <CharString name="semicolon">
          -352 29 400 -88 callsubr
          41 -590 rmoveto
          40 49 50 58 61 vvcurveto
          39 -36 82 -35 -12 -11 -4 -7 -9 vhcurveto
          -2 -2 rlineto
          -8 -8 -1 -15 -12 vvcurveto
          -9 4 -9 5 -8 vhcurveto
          34 -51 rlineto
          7 -12 6 -12 -14 vvcurveto
          -36 -23 -45 -24 -32 vhcurveto
          endchar
        </CharString>
        <CharString name="seven">
          -45 494 686 rmoveto
          -208 hlineto
          -45 -153 2 6 -18 hvcurveto
          -21 -79 7 -9 rlineto
          336 hlineto
          6 -12 rlineto
          -62 -99 -98 -171 0 vvcurveto
          -54 -92 -85 -150 -24 -82 6 -8 rcurveline
          84 20 32 146 65 136 78 128 rlinecurve
          154 252 rlineto
          endchar
        </CharString>
        <CharString name="seven.dnom">
          353 404 -60 callsubr
        </CharString>
        <CharString name="seven.numr">
          353 679 -60 callsubr
        </CharString>
        <CharString name="sigma">
          -2 210 462 rmoveto
          -126 -5 -53 -118 -118 vvcurveto
          -109 46 -117 129 145 87 101 132 83 -35 70 -67 45 vhcurveto
          1 6 66 -8 69 -8 64 -13 rlinecurve
          7 6 14 57 -5 10 rlineto
          -323 -47 rmoveto
          104 26 -122 -91 -69 -20 -111 -96 -60 -40 66 48 -15 hvcurveto
          -11 34 -3 34 35 vvcurveto
          74 27 102 88 vhcurveto
          endchar
        </CharString>
        <CharString name="six">
          -45 471 688 rmoveto
          6 -15 -25 6 -15 hhcurveto
          -89 -86 -59 -65 -62 hvcurveto
          -89 -89 -45 -124 -125 vvcurveto
          -114 50 -137 141 120 115 107 117 85 -59 81 -91 -69 -63 -29 -43 -53 vhcurveto
          -7 1 1 96 19 101 79 73 rlinecurve
          38 41 54 27 61 hhcurveto
          20 18 -3 -8 20 hvcurveto
          9 4 rlineto
          -319 -369 rmoveto
          21 22 61 28 41 hhcurveto
          79 57 -68 -74 -76 -44 -64 -85 -106 -25 142 91 hvcurveto
          endchar
        </CharString>
        <CharString name="six.dnom">
          338 413 -71 callsubr
        </CharString>
        <CharString name="six.numr">
          338 688 -71 callsubr
        </CharString>
        <CharString name="slash">
          -155 380 720 rmoveto
          -11 -2 -386 -888 3 -14 32 -8 389 896 -5 11 rlineto
          endchar
        </CharString>
        <CharString name="softhyphen">
          -545 endchar
        </CharString>
        <CharString name="space">
          -212 endchar
        </CharString>
        <CharString name="sterling">
          104 301 134 rmoveto
          0 -50 36 -80 vhcurveto
          -3 6 31 16 49 50 17 61 rlinecurve
          2 5 1 4 2 5 59 -1 36 -1 89 -3 4 48 rcurveline
          -178 -6 rlineto
          134 32 -4 163 108 hhcurveto
          35 28 -29 -32 -37 13 -7 23 hvcurveto
          0 46 1 60 vvcurveto
          55 -50 23 -51 -142 -78 -109 -173 -22 vhcurveto
          -2 -15 -3 -17 -3 -18 -36 3 -27 1 -43 1 -8 -45 rcurveline
          35 1 36 1 35 1 -11 -50 -17 -48 -20 -19 -31 -31 -41 -15 -22 -37 -23 -39 -12 -33 -3 -33 20 -17 rcurveline
          46 15 24 75 67 hhcurveto
          26 52 -21 -43 66 hvcurveto
          -29 36 59 -29 81 hhcurveto
          43 25 25 30 29 hvcurveto
          39 41 5 57 56 vvcurveto
          11 -1 30 -4 17 vhcurveto
          -24 -5 rlineto
          2 -14 2 -24 -17 vvcurveto
          -67 -36 -61 -63 -44 -86 25 37 -54 vhcurveto
          endchar
        </CharString>
        <CharString name="t">
          -160 121 582 rmoveto
          2 -26 0 -64 -51 vvcurveto
          -6 -6 rlineto
          -104 hlineto
          -6 -6 -7 -24 5 -5 rlineto
          112 hlineto
          6 -7 rlineto
          -190 vlineto
          -135 2 -19 21 -27 vhcurveto
          -24 18 31 -7 23 hhcurveto
          58 60 45 43 46 hvcurveto
          -7 15 -12 2 rlineto
          -19 -30 -36 -22 -25 hhcurveto
          -63 -8 79 71 hvcurveto
          189 vlineto
          6 6 rlineto
          119 hlineto
          6 5 8 26 -5 4 rlineto
          -128 hlineto
          -6 5 1 58 5 51 5 57 rlinecurve
          -7 5 rlineto
          endchar
        </CharString>
        <CharString name="tau">
          -59 130 461 rmoveto
          -29 -39 -5 -30 -20 hvcurveto
          -13 -20 -22 -102 -4 -19 22 -3 rcurveline
          13 34 17 46 13 14 rrcurveto
          20 20 37 2 28 hhcurveto
          75 hlineto
          7 -7 rlineto
          -7 -83 -8 -83 -83 vvcurveto
          -63 10 -88 68 43 53 38 37 39 vhcurveto
          -9 14 -9 2 rlineto
          -10 -16 -26 -15 -19 hhcurveto
          -62 1 134 34 54 9 77 2 34 hvcurveto
          9 8 rlineto
          68 hlineto
          28 28 4 6 27 hvcurveto
          43 67 -13 9 rlineto
          -16 -34 -38 -7 -38 hhcurveto
          endchar
        </CharString>
        <CharString name="theta">
          -45 214 -11 rmoveto
          109 91 99 103 32 hvcurveto
          18 56 5 61 60 vvcurveto
          134 -16 193 -153 -115 -89 -82 -108 -34 vhcurveto
          -19 -58 -1 -62 -60 vvcurveto
          -135 19 -201 153 vhcurveto
          -95 388 rmoveto
          94 11 177 125 118 5 -167 -104 6 vhcurveto
          -5 -7 rlineto
          -254 hlineto
          264 -45 rmoveto
          -85 -4 -109 -47 -48 vhcurveto
          -19 -19 -21 -17 -27 hhcurveto
          -125 -27 168 111 hvcurveto
          7 7 rlineto
          255 hlineto
          endchar
        </CharString>
        <CharString name="theta1">
          -19 114 118 rmoveto
          -76 31 -56 73 104 91 94 100 35 vhcurveto
          17 50 7 47 53 vvcurveto
          4 4 rlineto
          52 27 -53 -86 callsubr
          99 -20 116 -76 76 vhcurveto
          24 -24 -32 16 -34 hhcurveto
          -84 -65 -63 -84 -135 129 -72 132 -13 hvcurveto
          4 -5 rlineto
          -103 -19 -189 -125 -56 -13 37 118 vhcurveto
          108 vlineto
          39 -19 36 -39 -50 -52 -35 -33 -38 vhcurveto
          11 -20 rlineto
          13 22 25 15 22 hhcurveto
          40 4 -48 -36 hvcurveto
          278 137 rmoveto
          -111 10 -103 87 115 vvcurveto
          43 33 39 44 61 40 -80 -58 19 vhcurveto
          16 -49 6 -50 -52 vvcurveto
          endchar
        </CharString>
        <CharString name="thorn">
          -2 199 -206 rmoveto
          -5 52 0 13 -2 46 10 8 rcurveline
          -5 19 17 -3 20 hhcurveto
          155 105 162 147 75 -35 92 -102 -69 -59 -31 -43 -54 hvcurveto
          -8 4 rlineto
          10 0 28 -1 31 vhcurveto
          69 -2 -28 21 -36 -50 callsubr
          219 rmoveto
          1 -1 81 82 11 2 98 -43 callsubr
        </CharString>
        <CharString name="three">
          -45 241 382 rmoveto
          87 25 71 65 96 vvcurveto
          87 -65 47 -81 -62 -68 -51 -43 -51 vhcurveto
          14 -22 rlineto
          24 37 46 29 39 hhcurveto
          60 49 -37 -62 -90 -70 -51 -121 -28 hvcurveto
          -1 -26 rlineto
          60 79 -4 -41 39 hvcurveto
          29 -31 20 -40 -43 vvcurveto
          -86 -56 -77 -90 -61 -45 47 51 -30 vhcurveto
          -10 hlineto
          -42 -72 7 -11 rlineto
          -35 45 54 -20 57 hhcurveto
          133 132 95 137 100 -78 48 -127 11 hvcurveto
          endchar
        </CharString>
        <CharString name="three.dnom">
          182 229 -70 callsubr
        </CharString>
        <CharString name="three.numr">
          182 504 -70 callsubr
        </CharString>
        <CharString name="threequarters">
          245 633 -90 callsubr
          -475 -188 rmoveto
          62 15 52 39 58 vvcurveto
          53 -49 27 -56 -46 -48 -31 -25 -37 vhcurveto
          10 -13 rlineto
          14 27 32 17 29 hhcurveto
          41 37 -20 -39 -55 -51 -29 -86 -17 hvcurveto
          -1 -16 rlineto
          43 58 -2 -25 28 hvcurveto
          20 -18 15 -25 -25 vvcurveto
          -52 -40 -46 -65 -43 -33 28 31 -22 vhcurveto
          -7 hlineto
          -30 -44 4 -6 rlineto
          -21 32 40 -12 41 hhcurveto
          96 94 57 82 59 -53 29 -94 7 hvcurveto
          435 -103 -74 callsubr
        </CharString>
        <CharString name="threesuperior">
          -246 144 518 rmoveto
          64 16 52 43 62 vvcurveto
          58 -50 29 -57 -46 -49 -32 -29 -38 vhcurveto
          10 -14 rlineto
          16 28 33 18 29 hhcurveto
          45 35 -24 -40 -59 -53 -33 -88 -18 hvcurveto
          -17 vlineto
          44 57 -2 -27 29 hvcurveto
          21 -20 16 -26 -28 vvcurveto
          -57 -42 -49 -65 -44 -32 30 34 -24 vhcurveto
          -8 hlineto
          -31 -47 5 -7 rlineto
          -23 33 40 -13 42 hhcurveto
          96 99 61 90 67 -61 29 -90 7 hvcurveto
          endchar
        </CharString>
        <CharString name="tilde">
          -45 249 620 -103 callsubr
          endchar
        </CharString>
        <CharString name="tildecomb">
          -545 -2 620 -103 callsubr
          endchar
        </CharString>
        <CharString name="two">
          -45 467 88 rmoveto
          -309 hlineto
          -5 -8 1 6 2 1 1 1 1 hvcurveto
          84 98 88 101 59 107 rrcurveto
          26 46 22 48 54 vvcurveto
          87 -63 68 -88 -84 -73 -53 -60 -54 vhcurveto
          20 -19 rlineto
          32 38 44 32 55 hhcurveto
          85 28 -80 -52 -119 -78 -101 -78 -91 hvcurveto
          -53 -62 -56 -59 -57 -58 rrcurveto
          -16 437 vlineto
          23 78 rlineto
          endchar
        </CharString>
        <CharString name="two.dnom">
          338 48 -66 callsubr
        </CharString>
        <CharString name="two.numr">
          338 323 -66 callsubr
        </CharString>
        <CharString name="twosuperior">
          -241 308 327 rmoveto
          -227 hlineto
          -5 -4 1 4 1 0 0 1 1 hvcurveto
          88 90 117 114 91 vvcurveto
          58 -48 43 -63 -61 -54 -34 -39 -40 vhcurveto
          14 -13 rlineto
          21 28 34 21 40 hhcurveto
          60 22 -50 -36 -78 -57 -65 -57 -59 hvcurveto
          -39 -40 -41 -38 -42 -38 rrcurveto
          -11 321 vlineto
          17 51 rlineto
          endchar
        </CharString>
        <CharString name="u">
          93 627 107 -94 callsubr
        </CharString>
        <CharString name="uacute">
          88 442 704 -104 callsubr
          347 -443 -94 callsubr
        </CharString>
        <CharString name="ucircumflex">
          88 154 561 -106 callsubr
          304 -635 -94 callsubr
        </CharString>
        <CharString name="udieresis">
          88 477 606 -107 callsubr
          352 -499 -94 callsubr
        </CharString>
        <CharString name="ugrave">
          88 187 705 -105 callsubr
          393 -634 -94 callsubr
        </CharString>
        <CharString name="underscore">
          211 756 -74 rmoveto
          -756 -40 756 hlineto
          endchar
        </CharString>
        <CharString name="upsilon">
          -2 387 398 rmoveto
          39 -38 18 -53 -54 vvcurveto
          -76 -35 -126 -129 -67 -27 58 72 vhcurveto
          69 5 60 66 vvcurveto
          46 -10 50 -56 -50 -49 -37 -34 -38 vhcurveto
          16 -22 rlineto
          17 21 24 18 26 hhcurveto
          30 8 -43 -41 hvcurveto
          -211 vlineto
          -65 27 -66 81 156 142 152 156 66 -29 61 -45 48 vhcurveto
          -20 -4 -42 -51 rlineto
          endchar
        </CharString>
        <CharString name="v">
          -52 363 425 rmoveto
          -2 -2 -2 -3 -3 vvcurveto
          -2 0 -2 1 -1 vhcurveto
          17 -32 20 -36 -32 vvcurveto
          -71 -57 -78 -50 -59 vhcurveto
          -8 -8 -11 -14 -5 hhcurveto
          -21 -32 151 60 -15 hvcurveto
          107 -28 -14 69 -51 hhcurveto
          -39 -50 -33 -25 -36 hvcurveto
          9 -24 rlineto
          13 23 18 8 22 hhcurveto
          31 24 -76 -85 23 hvcurveto
          69 -258 rlineto
          24 hlineto
          5 3 14 14 11 11 59 60 55 63 45 72 rrcurveto
          28 45 27 50 55 vvcurveto
          58 -27 42 -19 -2 -3 0 -2 -3 vhcurveto
          endchar
        </CharString>
        <CharString name="w">
          256 668 416 rmoveto
          18 -31 20 -40 -33 vvcurveto
          -81 -63 -76 -51 -64 vhcurveto
          -4 -3 -8 -6 -4 hhcurveto
          -8 -7 8 7 -3 hvcurveto
          -44 118 -27 124 -26 126 -12 3 rcurveline
          -52 -26 -52 -106 -57 -104 -57 -103 rlinecurve
          -11 2 -10 81 -4 82 -15 80 rlinecurve
          41 -8 -16 55 -54 hhcurveto
          -41 -54 -40 -28 -39 hvcurveto
          9 -20 rlineto
          14 27 33 17 23 hhcurveto
          10 34 1 -191 21 hvcurveto
          24 -224 7 -6 42 13 55 119 68 128 56 103 rlinecurve
          3 1 6 2 4 hhcurveto
          5 2 -6 -4 2 hvcurveto
          29 -114 45 -175 17 -48 rrcurveto
          -9 3 12 -12 11 hhcurveto
          13 12 11 10 10 hvcurveto
          58 63 55 66 45 74 rrcurveto
          28 47 28 51 55 vvcurveto
          24 -18 72 -25 -3 -2 0 -1 -1 vhcurveto
          -57 -35 rlineto
          -2 -1 0 -3 -3 vvcurveto
          -2 0 -2 1 -2 vhcurveto
          endchar
        </CharString>
        <CharString name="weierstrass">
          46 182 464 rmoveto
          -51 -37 -42 -55 -66 vvcurveto
          -43 21 -42 20 -37 vhcurveto
          -28 -52 -58 -121 -76 vvcurveto
          -61 31 -70 75 92 42 100 82 15 -2 14 -4 15 vhcurveto
          -21 20 27 -15 30 hhcurveto
          37 39 29 28 28 hvcurveto
          66 66 25 97 92 vvcurveto
          72 -21 94 -99 -118 -79 -119 -62 -39 vhcurveto
          -18 -26 rlineto
          -9 hlineto
          -11 22 -11 28 27 vvcurveto
          43 25 36 26 33 vhcurveto
          73 -395 rmoveto
          -19 56 -31 59 -30 53 40 62 63 92 39 16 rrcurveto
          11 28 10 2 19 hhcurveto
          80 22 -94 -65 -92 -23 -110 -88 -27 -20 17 35 -9 hvcurveto
          -7 1 rlineto
          -162 42 rmoveto
          38 -60 51 -75 -60 vvcurveto
          -45 -19 -52 -58 -56 -16 71 47 50 21 72 30 52 vhcurveto
          endchar
        </CharString>
        <CharString name="x">
          -55 410 462 rmoveto
          2 -2 -2 0 -2 hhcurveto
          -3 -2 0 -2 -1 hvcurveto
          -44 -51 -59 -70 -36 -48 -6 1 rcurveline
          -29 56 -41 72 -21 23 rrcurveto
          15 -14 -23 4 -17 hhcurveto
          -33 -50 -37 -27 -35 hvcurveto
          14 -18 rlineto
          12 18 25 13 21 hhcurveto
          49 48 -107 -77 38 hvcurveto
          -49 -64 -50 -69 -43 -69 rrcurveto
          -8 vlineto
          28 -25 16 4 30 77 40 62 39 60 rlinecurve
          7 hlineto
          -129 66 34 -74 51 hhcurveto
          42 51 56 38 35 hvcurveto
          -8 19 rlineto
          -8 hlineto
          -17 -20 -27 -21 -24 hhcurveto
          -44 -59 106 90 -41 hvcurveto
          52 61 64 65 56 39 rrcurveto
          2 1 1 1 3 vvcurveto
          1 -2 2 -1 1 vhcurveto
          endchar
        </CharString>
        <CharString name="xi">
          -73 411 -137 rmoveto
          32 43 42 54 47 vvcurveto
          42 -55 9 -32 vhcurveto
          -40 -84 -11 -56 hhcurveto
          -66 -53 39 69 132 122 48 108 hvcurveto
          23 vlineto
          -74 8 -86 21 91 vvcurveto
          110 112 34 87 10 vhcurveto
          28 vlineto
          -6 -32 -35 -5 -31 hhcurveto
          -50 -51 13 32 -39 hvcurveto
          -8 hlineto
          -28 -46 41 -22 47 -5 44 -1 rlinecurve
          1 -8 rlineto
          -68 -27 -68 -55 -79 vvcurveto
          -70 57 -24 51 -11 vhcurveto
          -6 vlineto
          -94 -29 -91 -77 -108 vvcurveto
          -81 62 -53 83 vhcurveto
          28 106 16 52 hhcurveto
          34 45 -9 -42 -24 -19 -30 -15 -25 hvcurveto
          endchar
        </CharString>
        <CharString name="y">
          27 104 -182 -85 callsubr
        </CharString>
        <CharString name="yacute">
          7 441 699 -104 callsubr
          -175 -727 -85 callsubr
        </CharString>
        <CharString name="ydieresis">
          7 456 605 -107 callsubr
          -150 -787 -85 callsubr
        </CharString>
        <CharString name="yen">
          78 250 299 rmoveto
          -21 0 -20 -21 vvcurveto
          -149 -97 callsubr
          156 hlineto
          -66 -1 -67 -2 -66 vhcurveto
          11 -9 90 29 -6 179 rlineto
          166 hlineto
          6 40 rlineto
          -173 hlineto
          -2 69 5 8 5 7 5 8 rlinecurve
          152 hlineto
          6 40 rlineto
          -131 hlineto
          67 99 67 87 92 120 -4 18 rcurveline
          -84 callsubr
          114 -225 rcurveline
          -116 -97 callsubr
          143 hlineto
          endchar
        </CharString>
        <CharString name="z">
          -82 402 462 rmoveto
          -17 -21 -23 -14 -29 -56 -68 31 -51 hhcurveto
          -29 -13 -10 -31 -20 hvcurveto
          -50 -89 20 -13 rlineto
          43 31 21 28 37 36 51 -19 33 hhcurveto
          11 9 0 2 10 hvcurveto
          -295 -381 15 -19 rlineto
          6 hlineto
          23 16 22 20 24 hhcurveto
          117 -11 43 -4 75 -10 11 1 rlinecurve
          50 -1 27 28 20 40 41 80 rcurveline
          -22 12 rlineto
          -36 -23 -29 -42 -57 hhcurveto
          -9 -98 3 10 -98 hvcurveto
          -5 8 99 134 108 133 83 88 rlinecurve
          -14 13 rlineto
          endchar
        </CharString>
        <CharString name="zero">
          -45 290 704 rmoveto
          -44 -18 -49 -24 -33 -33 rrcurveto
          -85 -85 -45 -121 -120 vvcurveto
          -115 28 -202 145 184 69 211 159 133 -49 138 -121 77 vhcurveto
          -56 -64 rmoveto
          45 -19 44 -70 7 -12 rrcurveto
          44 -79 24 -85 -90 vvcurveto
          -97 -24 -136 -122 -64 -46 79 68 -20 vhcurveto
          -16 55 -5 59 58 vvcurveto
          101 45 113 88 55 vhcurveto
          endchar
        </CharString>
        <CharString name="zero.dnom">
          215 422 -67 callsubr
        </CharString>
        <CharString name="zero.numr">
          215 697 -67 callsubr
        </CharString>
        <CharString name="zeta">
          -124 363 -136 rmoveto
          32 40 40 54 48 vvcurveto
          36 -39 11 -41 vhcurveto
          -24 -37 -6 -40 hhcurveto
          -104 -45 80 83 181 148 196 155 49 hvcurveto
          19 vlineto
          -5 -34 -29 -3 -26 hhcurveto
          -55 -42 12 32 -48 hvcurveto
          4 -7 1 0 -2 hhcurveto
          -2 -1 0 -1 -2 hvcurveto
          -28 -35 rlineto
          -2 -2 0 -1 -1 vvcurveto
          18 -17 26 -6 25 -4 91 -8 rcurveline
          1 -7 rlineto
          -130 -109 -134 -171 -159 vvcurveto
          -93 38 -91 124 vhcurveto
          26 68 9 41 hhcurveto
          22 29 -14 -24 -26 -19 -32 -15 -27 hvcurveto
          endchar
        </CharString>
</ttFont>
